<svg xmlns="http://www.w3.org/2000/svg" xmlns:xlink="http://www.w3.org/1999/xlink" width="487.762" height="322.868" viewBox="0 0 487.762 322.868">
  <defs>
    <clipPath id="clip-path">
      <rect id="Rectangle_7336" data-name="Rectangle 7336" width="205.365" height="118.753" fill="none"/>
    </clipPath>
    <clipPath id="clip-path-2">
      <rect id="Rectangle_7342" data-name="Rectangle 7342" width="55.347" height="80.398" fill="none"/>
    </clipPath>
    <clipPath id="clip-path-3">
      <rect id="Rectangle_7339" data-name="Rectangle 7339" width="9.804" height="5.746" fill="none"/>
    </clipPath>
    <clipPath id="clip-path-4">
      <rect id="Rectangle_7340" data-name="Rectangle 7340" width="6.907" height="12.853" fill="none"/>
    </clipPath>
    <clipPath id="clip-path-5">
      <rect id="Rectangle_7341" data-name="Rectangle 7341" width="55.347" height="75.835" fill="none"/>
    </clipPath>
    <clipPath id="clip-path-6">
      <rect id="Rectangle_7343" data-name="Rectangle 7343" width="281.279" height="163.585" fill="none"/>
    </clipPath>
    <clipPath id="clip-path-7">
      <path id="Path_87863" data-name="Path 87863" d="M60.5,120.826l0-.005s0,.03,0,.005" transform="translate(-60.492 -120.821)" fill="none"/>
    </clipPath>
    <linearGradient id="linear-gradient" x1="-21932.939" y1="13410.247" x2="-21570.361" y2="13410.247" gradientUnits="objectBoundingBox">
      <stop offset="0" stop-color="#fa5fc8"/>
      <stop offset="1" stop-color="#b161cb"/>
    </linearGradient>
    <clipPath id="clip-path-8">
      <rect id="Rectangle_7346" data-name="Rectangle 7346" width="74.135" height="42.935" fill="none"/>
    </clipPath>
    <clipPath id="clip-path-9">
      <rect id="Rectangle_7347" data-name="Rectangle 7347" width="132.483" height="76.723" fill="none"/>
    </clipPath>
    <clipPath id="clip-path-10">
      <rect id="Rectangle_7348" data-name="Rectangle 7348" width="72.721" height="42.119" fill="none"/>
    </clipPath>
  </defs>
  <g id="Group_35504" data-name="Group 35504" transform="translate(-68.916 -88.353)">
    <g id="Group_35505" data-name="Group 35505" transform="translate(68.916 88.353)">
      <path id="Path_87785" data-name="Path 87785" d="M87.322,86.7l.011,2.95,13.388,7.777,0-2.948Z" transform="translate(-2.316 -17.721)" fill="#363b67"/>
      <path id="Path_87786" data-name="Path 87786" d="M94.832,109.2l0,2.948,71.488-41.268-.014-2.95Z" transform="translate(3.568 -32.435)" fill="#0f1446"/>
      <path id="Path_87787" data-name="Path 87787" d="M87.322,104.836l13.4,7.778,71.475-41.27-13.383-7.78Z" transform="translate(-2.316 -35.853)" fill="#4e5381"/>
      <g id="Group_35489" data-name="Group 35489" transform="translate(0 0)">
        <g id="Group_35506" data-name="Group 35506">
          <path id="Path_87788" data-name="Path 87788" d="M123.926,84.811V84.62c0-.027-.007-.05-.011-.075l-.011-.064v-.005c-.005-.021-.009-.043-.016-.066a.5.5,0,0,0-.007-.071c-.009-.025-.012-.048-.02-.068s-.016-.054-.02-.077a.221.221,0,0,1-.011-.052l-.011-.012,0,0a.291.291,0,0,1-.014-.077c-.014-.018-.018-.046-.034-.068a.183.183,0,0,0-.018-.064c-.012-.023-.021-.045-.032-.068a.451.451,0,0,0-.02-.052v-.005l0-.007c-.014-.023-.018-.046-.032-.068a.406.406,0,0,1-.03-.071.93.93,0,0,1-.046-.084c-.012-.025-.034-.055-.05-.084-.011-.007-.011-.014-.014-.021v-.009c-.036-.052-.071-.114-.1-.169l-.089-.121-.007-.009c-.014-.02-.039-.046-.057-.075s-.03-.037-.05-.062a.331.331,0,0,0-.053-.059c-.016-.023-.037-.039-.055-.066l0-.007-.014-.009c-.011-.014-.029-.029-.034-.039a.62.62,0,0,1-.061-.057c-.021-.016-.039-.037-.059-.055s-.043-.036-.059-.055a.187.187,0,0,1-.039-.025v0c-.007-.009-.02-.011-.023-.018l-.061-.046c-.023-.014-.037-.027-.061-.043l-.052-.036a.428.428,0,0,1-.066-.039l-.009-.007L112.222,76.47a.272.272,0,0,1-.046-.025.255.255,0,0,0-.054-.023.26.26,0,0,0-.064-.027.493.493,0,0,0-.05-.029l-.055-.021h-.009l-.007-.005-.041-.011c-.014-.005-.039-.011-.057-.016s-.037-.011-.057-.014a.278.278,0,0,1-.059-.009h-.059a.2.2,0,0,0-.064-.007.279.279,0,0,0-.075.007.334.334,0,0,0-.08.007c-.027.005-.053.016-.093.029a.528.528,0,0,0-.107.05L97.061,84.62a.492.492,0,0,1,.2-.077.754.754,0,0,1,.23-.016l.005,0a.93.93,0,0,1,.255.057h.005a1.92,1.92,0,0,1,.275.123l10.347,5.977a2.455,2.455,0,0,1,.528.428l.012.007a3.035,3.035,0,0,1,.218.273l.005.005h0a3.059,3.059,0,0,1,.2.3c0,.005,0,.012.014.02a3.021,3.021,0,0,1,.364.993l0,.009a2.35,2.35,0,0,1,.023.328,1.678,1.678,0,0,1-.023.3l0,.007a.946.946,0,0,1-.162.366.7.7,0,0,1-.212.209l14.182-8.242a.744.744,0,0,0,.216-.207c.009-.012.02-.016.025-.027.018-.032.036-.062.05-.095a.22.22,0,0,0,.032-.077c.011-.023.021-.048.03-.071s.007-.045.014-.07a.06.06,0,0,1,.009-.03V85.1l0-.025c.007-.023.011-.045.016-.07s0-.046,0-.066v-.13Z" transform="translate(5.315 -25.887)" fill="#1d96cb"/>
          <path id="Path_87789" data-name="Path 87789" d="M108.557,87.065a3.012,3.012,0,0,1,1.366,2.362c0,.867-.619,1.218-1.373.785L98.2,84.24a3,3,0,0,1-1.361-2.369c0-.863.619-1.216,1.372-.783Z" transform="translate(5.141 -22.267)" fill="#1884aa"/>
          <path id="Path_87790" data-name="Path 87790" d="M124.865,83.244c0-.023,0-.043,0-.064v-.064c0-.025,0-.05-.007-.07a.3.3,0,0,0-.009-.07c0-.025-.007-.05-.007-.07l-.005-.007a.53.53,0,0,0-.011-.068c0-.02-.007-.046-.009-.07a.446.446,0,0,1-.023-.075.561.561,0,0,0-.016-.075.537.537,0,0,0-.02-.057l0-.012v-.005l-.021-.073a.7.7,0,0,1-.029-.068.261.261,0,0,0-.025-.068.406.406,0,0,0-.029-.07.155.155,0,0,0-.018-.055.01.01,0,0,0-.007-.011.339.339,0,0,0-.037-.068.4.4,0,0,0-.03-.077.537.537,0,0,0-.043-.078.718.718,0,0,0-.052-.1.036.036,0,0,1-.012-.021l-.005-.007c-.034-.059-.07-.116-.1-.173-.034-.041-.061-.08-.091-.123l-.007-.007c-.016-.025-.039-.05-.053-.077s-.037-.046-.055-.068-.036-.043-.052-.064a.348.348,0,0,1-.055-.061s-.012,0-.012-.011L124,81.254a.182.182,0,0,0-.037-.036c-.016-.02-.039-.043-.057-.062s-.039-.041-.064-.057-.041-.039-.057-.057-.027-.014-.034-.027l-.03-.021a.567.567,0,0,0-.061-.05c-.023-.016-.043-.027-.066-.041a.334.334,0,0,0-.055-.037.373.373,0,0,0-.061-.037l-.016-.005-10.623-6.136a.112.112,0,0,0-.043-.025c-.018-.012-.039-.025-.052-.032s-.043-.018-.061-.023-.041-.018-.054-.025l-.057-.021-.012,0h-.007l-.039-.02a.217.217,0,0,1-.059-.012c-.021,0-.045-.011-.057-.011a.5.5,0,0,1-.061-.016.2.2,0,0,1-.045,0h-.155a.539.539,0,0,0-.084.016.412.412,0,0,0-.1.027.678.678,0,0,0-.116.052L97.288,83.046a.617.617,0,0,1,.2-.077h0a.621.621,0,0,1,.237-.012h.009a1.069,1.069,0,0,1,.253.057L98,83.02a1.193,1.193,0,0,1,.282.127l10.623,6.13a2.481,2.481,0,0,1,.278.2l.009.005a3.078,3.078,0,0,1,.252.235l.011.011a3.245,3.245,0,0,1,.228.28l.007,0,.007,0c.066.095.13.2.194.3a.029.029,0,0,0,.012.02,3.085,3.085,0,0,1,.369,1.022v.007a1.762,1.762,0,0,1,.032.342,1.486,1.486,0,0,1-.032.3v.007a.924.924,0,0,1-.164.375.663.663,0,0,1-.214.214l14.551-8.46a.727.727,0,0,0,.225-.212c0-.012.018-.02.023-.029a.5.5,0,0,0,.055-.1.318.318,0,0,0,.032-.077.49.49,0,0,1,.03-.073.354.354,0,0,1,.014-.073.06.06,0,0,0,0-.025l0-.012.009-.029.012-.064c0-.027,0-.046,0-.073a.289.289,0,0,0,0-.059v-.061l0-.012" transform="translate(5.493 -27.289)" fill="#ff4d75"/>
          <path id="Path_87791" data-name="Path 87791" d="M109.087,85.56a3.1,3.1,0,0,1,1.4,2.428c0,.888-.637,1.247-1.407.8L98.46,82.66a3.081,3.081,0,0,1-1.4-2.428c.005-.894.628-1.25,1.406-.8Z" transform="translate(5.313 -23.572)" fill="#e03b66"/>
          <path id="Path_87792" data-name="Path 87792" d="M140.751,73.637c0-.023,0-.041,0-.059v-.07c0-.021,0-.05,0-.07s0-.043-.009-.066a.3.3,0,0,1-.012-.07V73.3c-.007-.018-.007-.041-.014-.061s-.009-.046-.012-.075a.521.521,0,0,0-.018-.071.2.2,0,0,0-.02-.073.341.341,0,0,0-.016-.061v0l0-.012-.021-.068c-.014-.025-.014-.05-.029-.073s-.016-.045-.023-.064-.021-.048-.029-.066a.343.343,0,0,0-.023-.057V72.6l-.007,0c-.007-.023-.021-.045-.027-.068s-.025-.05-.037-.071-.027-.059-.039-.084-.037-.062-.052-.086a.086.086,0,0,1-.014-.029v0c-.036-.057-.073-.112-.109-.169s-.059-.086-.089-.125l-.007-.007a.611.611,0,0,0-.052-.073c-.02-.023-.037-.045-.053-.068s-.036-.041-.057-.062-.037-.039-.05-.059l-.007-.011-.018-.009c-.014-.014-.021-.03-.034-.041s-.039-.037-.062-.055a.45.45,0,0,0-.057-.059c-.023-.02-.041-.034-.061-.052a.116.116,0,0,0-.037-.03v-.005c-.007,0-.014-.009-.027-.018s-.037-.025-.059-.041a.5.5,0,0,0-.061-.046l-.057-.037a.155.155,0,0,0-.061-.032l-.016-.014L128.89,65.2a.45.45,0,0,0-.046-.029l-.054-.029c-.018-.012-.041-.014-.055-.027a.282.282,0,0,1-.052-.023.24.24,0,0,1-.057-.023h-.012l-.007,0a.242.242,0,0,0-.043-.011c-.02,0-.034-.011-.053-.014s-.039-.007-.061-.012a.25.25,0,0,0-.057-.011.181.181,0,0,0-.045,0h0l-.014,0c-.018,0-.037,0-.068,0s-.046,0-.068.007a.725.725,0,0,0-.086.007c-.029.013-.061.016-.095.03a.348.348,0,0,0-.1.05l-14.36,8.346a.435.435,0,0,1,.205-.075v-.007a.85.85,0,0,1,.235-.011H114a1.166,1.166,0,0,1,.253.057l0,0a1.75,1.75,0,0,1,.28.125l10.479,6.052a2.271,2.271,0,0,1,.276.193h0a2.122,2.122,0,0,1,.253.239l.007.005a3.107,3.107,0,0,1,.227.273l.009.012h0a2.641,2.641,0,0,1,.193.3c.007.005.012.007.016.02a3.229,3.229,0,0,1,.367,1v.014a2.114,2.114,0,0,1,.025.334,2.213,2.213,0,0,1-.025.3v0a1.073,1.073,0,0,1-.164.376.832.832,0,0,1-.212.207l14.353-8.342a.692.692,0,0,0,.218-.214c.007-.009.021-.016.021-.023a.4.4,0,0,0,.059-.095.489.489,0,0,0,.03-.08c.007-.023.016-.048.025-.071s.011-.048.02-.071a.048.048,0,0,1,.007-.029v-.007a.072.072,0,0,1,.005-.032.455.455,0,0,1,.013-.064c0-.021,0-.046.007-.064v-.125l0-.012" transform="translate(18.237 -34.724)" fill="#feb624"/>
          <path id="Path_87793" data-name="Path 87793" d="M125.191,75.925a3.046,3.046,0,0,1,1.379,2.392c0,.874-.626,1.229-1.384.792l-10.479-6.052a3.031,3.031,0,0,1-1.384-2.388c0-.881.624-1.238,1.389-.8Z" transform="translate(18.058 -31.058)" fill="#ffca6c"/>
          <path id="Path_87794" data-name="Path 87794" d="M141.41,71.664v-.059c0-.023,0-.046,0-.066a.568.568,0,0,0-.007-.071c0-.023,0-.046-.005-.068a.309.309,0,0,1-.009-.07v0a.461.461,0,0,1-.014-.064c0-.025-.011-.05-.012-.073a.6.6,0,0,1-.018-.077.179.179,0,0,0-.02-.071l-.021-.057v-.009l0-.005a.166.166,0,0,0-.021-.071c-.007-.027-.014-.046-.021-.07s-.02-.048-.027-.07-.021-.048-.029-.068a.572.572,0,0,0-.021-.055v-.011a.29.29,0,0,1-.037-.07.535.535,0,0,0-.037-.07c-.012-.027-.023-.055-.037-.082s-.037-.062-.05-.091L141,70.294l0-.005c-.034-.059-.071-.114-.105-.168s-.057-.087-.084-.125l-.011-.011c-.025-.025-.034-.05-.057-.075s-.037-.043-.053-.066l-.054-.061-.055-.061-.009-.009c-.007,0-.007-.007-.007-.014a.371.371,0,0,1-.037-.037c-.021-.018-.041-.039-.062-.057l-.059-.057c-.021-.016-.041-.034-.062-.052a.19.19,0,0,1-.034-.032.14.14,0,0,0-.027-.018c-.02-.014-.039-.032-.059-.046s-.041-.03-.064-.043l-.054-.039c-.021-.011-.041-.027-.061-.034l-.014-.012-10.473-6.048c-.018-.011-.03-.012-.046-.021a.6.6,0,0,0-.057-.03c-.018-.011-.039-.018-.055-.029a.194.194,0,0,1-.061-.025.393.393,0,0,1-.054-.02l-.007,0-.011,0-.041-.011a.288.288,0,0,0-.052-.016.51.51,0,0,1-.062-.014.519.519,0,0,1-.055-.007.2.2,0,0,0-.045,0l-.021,0c-.02,0-.043,0-.064,0a.484.484,0,0,0-.071.007.278.278,0,0,0-.078.011c-.034.007-.066.014-.1.023a.651.651,0,0,0-.111.057l-14.362,8.34a.653.653,0,0,1,.207-.077,1.032,1.032,0,0,1,.235-.014l.007,0a.907.907,0,0,1,.253.054l.011,0a1.983,1.983,0,0,1,.276.128l10.479,6.052a1.475,1.475,0,0,1,.269.189l.007,0a2.589,2.589,0,0,1,.253.235l.007.009a2.769,2.769,0,0,1,.228.273l0,.005,0,0a3.506,3.506,0,0,1,.193.3l.02.02a3.1,3.1,0,0,1,.362,1.008l0,.011a1.947,1.947,0,0,1,.021.337,1.185,1.185,0,0,1-.025.293v.009a1,1,0,0,1-.161.373.721.721,0,0,1-.214.209l14.358-8.346a.646.646,0,0,0,.214-.209c.007-.011.021-.014.029-.027a.674.674,0,0,0,.048-.095.4.4,0,0,0,.039-.078.47.47,0,0,1,.023-.071.441.441,0,0,0,.016-.073l.007-.025,0-.009a.094.094,0,0,1,0-.032,1.72,1.72,0,0,0,.018-.132.377.377,0,0,1,0-.062v-.073Z" transform="translate(18.75 -36.27)" fill="#1d96cb"/>
          <path id="Path_87795" data-name="Path 87795" d="M125.849,73.955a3.029,3.029,0,0,1,1.372,2.392c0,.872-.622,1.231-1.386.792l-10.477-6.052a3.025,3.025,0,0,1-1.373-2.392c0-.881.617-1.234,1.386-.792Z" transform="translate(18.576 -32.603)" fill="#1884aa"/>
          <path id="Path_87796" data-name="Path 87796" d="M81.392,71.847l.009,3.034L95.177,82.89l-.007-3.032Z" transform="translate(-6.964 -29.363)" fill="#363b67"/>
          <path id="Path_87797" data-name="Path 87797" d="M89.117,95l.007,3.032,73.591-42.481-.016-3.038Z" transform="translate(-0.91 -44.51)" fill="#0f1446"/>
          <path id="Path_87798" data-name="Path 87798" d="M81.392,90.512l13.779,8.01,73.582-42.486-13.775-8.009Z" transform="translate(-6.964 -48.028)" fill="#4e5381"/>
          <path id="Path_87799" data-name="Path 87799" d="M112.889,72.186c0-.023,0-.043,0-.066v-.066c0-.025,0-.05,0-.071a.536.536,0,0,0-.007-.071.288.288,0,0,0-.016-.068v0a.375.375,0,0,0-.007-.068.624.624,0,0,1-.012-.077.4.4,0,0,1-.021-.071l-.02-.075c-.007-.02-.007-.043-.014-.064l0-.009,0-.007a.481.481,0,0,1-.025-.071.38.38,0,0,0-.032-.073.232.232,0,0,0-.021-.071c-.007-.02-.018-.046-.029-.07a.449.449,0,0,0-.018-.052v-.009c-.011,0-.011,0-.011-.007-.007-.021-.023-.045-.03-.068a.506.506,0,0,0-.037-.077c-.016-.025-.025-.055-.041-.082a.935.935,0,0,0-.054-.091l-.011-.027-.005,0c-.036-.062-.075-.119-.105-.18-.034-.041-.057-.084-.095-.125l0-.009c-.02-.025-.037-.054-.057-.075a.849.849,0,0,1-.055-.07.367.367,0,0,1-.052-.066.364.364,0,0,0-.062-.055.02.02,0,0,0-.007-.016c-.009,0-.009-.007-.009-.007a.454.454,0,0,1-.041-.043.61.61,0,0,0-.061-.059c-.023-.021-.041-.039-.061-.059s-.046-.037-.064-.054-.021-.027-.037-.032a.055.055,0,0,1-.021-.02l-.064-.05-.064-.045a.41.41,0,0,1-.059-.037.216.216,0,0,0-.062-.034l-.012-.012L100.68,63.5c-.007-.011-.027-.018-.041-.027s-.041-.021-.057-.03a.578.578,0,0,0-.061-.027.494.494,0,0,1-.054-.027.54.54,0,0,1-.064-.021H100.4l-.005-.005c-.014-.007-.029-.007-.039-.016s-.041-.011-.061-.011l-.061-.012a.33.33,0,0,0-.061-.012.188.188,0,0,1-.043,0h-.021a.343.343,0,0,0-.068-.007c-.02,0-.05,0-.077.007a.692.692,0,0,0-.079.011c-.032.009-.066.016-.1.027a.6.6,0,0,0-.114.052L84.893,71.982a.577.577,0,0,1,.205-.077l.007,0a1.026,1.026,0,0,1,.237-.013h.011a1.058,1.058,0,0,1,.257.062h.012a2.1,2.1,0,0,1,.284.132l10.786,6.23a1.736,1.736,0,0,1,.28.2h0a2.822,2.822,0,0,1,.262.246l.011.007c.08.091.162.185.23.28l.005.012h0a2.154,2.154,0,0,1,.2.31l.014.02a3.258,3.258,0,0,1,.383,1.036v.007a2.828,2.828,0,0,1,.021.344,2.453,2.453,0,0,1-.021.312,1.047,1.047,0,0,1-.171.385.883.883,0,0,1-.221.218l14.781-8.59a.715.715,0,0,0,.219-.219c.007-.011.021-.016.029-.025.016-.034.039-.066.057-.1s.02-.05.032-.08.02-.048.029-.071a.255.255,0,0,1,.016-.075.094.094,0,0,0,0-.03v-.005c0-.014.009-.021.009-.034a.393.393,0,0,1,.014-.066.445.445,0,0,1,0-.07V72.2l0-.012" transform="translate(-4.22 -36.062)" fill="#feb624"/>
          <path id="Path_87800" data-name="Path 87800" d="M96.875,74.54A3.112,3.112,0,0,1,98.289,77c0,.9-.64,1.27-1.425.817l-10.787-6.23a3.124,3.124,0,0,1-1.418-2.458c0-.908.639-1.272,1.43-.819Z" transform="translate(-4.403 -32.288)" fill="#ffca6c"/>
          <path id="Path_87801" data-name="Path 87801" d="M113.566,70.153v-.132a.46.46,0,0,0-.007-.068c0-.027,0-.05-.007-.073s-.007-.045-.012-.068v-.007a.24.24,0,0,0-.014-.064c0-.027-.012-.048-.012-.075s-.009-.05-.012-.078-.014-.048-.025-.075a.159.159,0,0,1-.014-.061l0-.005v-.005a.389.389,0,0,0-.027-.077c-.012-.021-.012-.048-.027-.07a.6.6,0,0,0-.025-.073.238.238,0,0,0-.032-.07.4.4,0,0,0-.018-.055v0c-.009,0-.009,0-.009-.009-.007-.021-.023-.045-.03-.066a.647.647,0,0,1-.032-.077c-.016-.032-.03-.052-.046-.082s-.037-.062-.054-.091l-.016-.023v-.007a1.831,1.831,0,0,0-.109-.175,1.521,1.521,0,0,0-.091-.125l-.007-.011c-.016-.027-.037-.055-.053-.08s-.037-.045-.055-.064a.452.452,0,0,1-.052-.064l-.062-.066,0-.007c-.009-.005-.012-.005-.016-.012a.389.389,0,0,0-.037-.039.671.671,0,0,0-.062-.057.353.353,0,0,0-.062-.064.774.774,0,0,1-.061-.053c-.018-.007-.021-.018-.034-.03s-.02-.014-.032-.02-.041-.029-.059-.048a.4.4,0,0,0-.064-.041c-.02-.016-.043-.03-.059-.043a.557.557,0,0,1-.061-.037l-.018-.007-10.777-6.225-.052-.029a.382.382,0,0,1-.054-.032.22.22,0,0,1-.062-.027.322.322,0,0,1-.055-.023.423.423,0,0,1-.057-.023h-.007l-.012,0-.041-.011a.144.144,0,0,0-.055-.018.222.222,0,0,1-.057-.014.309.309,0,0,0-.062-.009.217.217,0,0,0-.041,0H100.8l-.016,0c-.023,0-.045-.005-.068-.005a.5.5,0,0,0-.077.009c-.025,0-.052,0-.078.005a.54.54,0,0,1-.1.027.638.638,0,0,0-.111.059L85.57,69.955a.737.737,0,0,1,.207-.082h0a.949.949,0,0,1,.237-.012l.009.005a.816.816,0,0,1,.26.057l.007,0a1.464,1.464,0,0,1,.289.128l10.786,6.23a1.62,1.62,0,0,1,.28.2l.009,0a2.686,2.686,0,0,1,.257.243l.014.007c.078.091.155.182.227.28l.007.005,0,.007a3.464,3.464,0,0,1,.2.305l.011.018a3.225,3.225,0,0,1,.38,1.038V78.4a1.824,1.824,0,0,1,.029.342,1.565,1.565,0,0,1-.029.3v.012a1.016,1.016,0,0,1-.168.383.725.725,0,0,1-.216.214l14.774-8.586a.738.738,0,0,0,.225-.221c.005-.009.023-.014.027-.025.018-.032.041-.064.057-.1s.023-.052.03-.08a.321.321,0,0,0,.025-.077l.02-.071a.084.084,0,0,0,.007-.029V70.46l.007-.034c0-.018.009-.043.009-.068l.011-.064v-.141Z" transform="translate(-3.69 -37.654)" fill="#ff5138"/>
          <path id="Path_87802" data-name="Path 87802" d="M97.551,72.508a3.106,3.106,0,0,1,1.418,2.461c0,.9-.644,1.268-1.43.815l-10.78-6.228a3.13,3.13,0,0,1-1.422-2.463c0-.9.637-1.268,1.429-.813Z" transform="translate(-3.872 -33.879)" fill="#e73a36"/>
          <g id="Group_35472" data-name="Group 35472" transform="translate(185.281 98.022)" opacity="0.1">
            <g id="Group_35471" data-name="Group 35471" transform="translate(0 0)">
              <g id="Group_35470" data-name="Group 35470" clip-path="url(#clip-path)">
                <path id="Path_87819" data-name="Path 87819" d="M351.941,192.529l-48.318,28.079L146.576,129.935l48.318-28.081Z" transform="translate(-146.576 -101.854)"/>
              </g>
            </g>
          </g>
          <path id="Path_87820" data-name="Path 87820" d="M262.663,162.692c-.009.044-.02.082-.031.123a4.6,4.6,0,0,1-.534,1.04c-.044.061-.077.124-.126.185a5.773,5.773,0,0,1-.906,1,1.089,1.089,0,0,1-.129.112,8.931,8.931,0,0,1-1.324.944,12.946,12.946,0,0,1-1.56.738c-.144.058-.3.112-.441.167-.338.124-.7.222-1.048.32-.371.105-.746.2-1.128.281-.445.091-.886.173-1.345.229-.112.016-.22.038-.338.049-.622.068-1.246.1-1.876.105-.1,0-.2,0-.306,0-.619,0-1.236-.038-1.847-.1l-.292-.031c-.609-.074-1.206-.174-1.8-.306-.1-.024-.2-.052-.306-.079a15.329,15.329,0,0,1-1.566-.474c-.083-.03-.178-.053-.264-.088a12.933,12.933,0,0,1-1.7-.8c-2.21-1.276-3.308-2.948-3.305-4.618l-.011,2.917c0,1.668,1.1,3.343,3.308,4.617a12.434,12.434,0,0,0,1.605.774.737.737,0,0,1,.1.028c.085.036.176.058.266.088.319.121.647.24,1,.338.184.052.374.091.566.138.1.028.206.052.311.079s.192.05.281.069c.369.077.734.138,1.109.192.14.02.272.031.4.049.1.009.192.016.289.028.129.014.266.038.4.049.361.027.732.044,1.1.055.115,0,.233,0,.352,0,.1,0,.2,0,.3,0,.167,0,.331,0,.49-.006.415-.009.833-.038,1.243-.079.05-.006.094-.017.146-.019.113-.014.223-.038.338-.049.317-.039.633-.074.944-.135.14-.024.264-.071.4-.1.382-.08.754-.174,1.123-.28.195-.053.4-.085.587-.146.157-.05.3-.118.456-.17l.446-.17a12.312,12.312,0,0,0,1.563-.74c.044-.027.09-.058.135-.085a8.755,8.755,0,0,0,1.2-.861c.039-.038.085-.068.119-.1s.069-.052.1-.082a6.046,6.046,0,0,0,.69-.745c.046-.058.079-.118.123-.176s.082-.129.127-.193c.063-.1.146-.2.206-.3a5.948,5.948,0,0,0,.3-.636.554.554,0,0,0,.025-.1c.016-.042.024-.085.041-.129a3.2,3.2,0,0,0,.112-.4,3.421,3.421,0,0,0,.077-.642v-.1l.006-2.914a3.718,3.718,0,0,1-.192,1.147" transform="translate(92.312 30.205)" fill="#c1e8fa"/>
          <path id="Path_87821" data-name="Path 87821" d="M259.559,159.275c4.373,2.526,4.4,6.627.049,9.158s-11.444,2.531-15.812,0c-4.389-2.535-4.412-6.637-.049-9.168,4.345-2.526,11.425-2.526,15.812,0" transform="translate(92.315 27.864)" fill="#def6ff"/>
          <rect id="Rectangle_7337" data-name="Rectangle 7337" width="3.572" height="109.66" transform="translate(342.198 83.514)" fill="#c1e8fa"/>
          <path id="Path_87822" data-name="Path 87822" d="M191.683,118.681c-.013.041-.02.08-.033.118a4.483,4.483,0,0,1-.534,1.041c-.041.061-.079.126-.124.187a6.175,6.175,0,0,1-.906,1c-.041.039-.086.075-.129.112a9.278,9.278,0,0,1-1.324.943,12.025,12.025,0,0,1-1.565.738c-.143.058-.292.113-.438.168-.338.123-.7.218-1.051.319s-.746.2-1.122.283c-.446.09-.888.17-1.348.229-.112.013-.225.038-.339.049q-.928.1-1.874.1c-.1,0-.2,0-.3,0-.622,0-1.239-.039-1.847-.1-.1-.014-.195-.022-.3-.035a17.407,17.407,0,0,1-1.792-.306c-.1-.024-.206-.05-.3-.077a14.557,14.557,0,0,1-1.569-.476c-.083-.03-.179-.055-.262-.088a12.448,12.448,0,0,1-1.7-.8c-2.21-1.274-3.311-2.945-3.311-4.615l0,2.916c-.006,1.671,1.1,3.341,3.3,4.617a12.507,12.507,0,0,0,1.605.773c.038.011.066.019.1.03.09.036.176.058.269.088.319.121.65.24.991.338.184.053.375.094.567.138.1.028.209.055.313.077s.189.05.284.069c.363.079.734.141,1.109.193.134.02.272.031.4.047.1.013.188.02.284.031.133.014.265.035.4.046.368.028.735.046,1.1.058.118,0,.234,0,.357,0,.1,0,.2,0,.3,0,.163,0,.325,0,.489,0,.418-.014.831-.041,1.243-.085.047,0,.093-.013.143-.019.116-.013.229-.033.341-.047.319-.039.63-.075.943-.132.138-.025.264-.071.405-.1.383-.077.754-.176,1.12-.278.2-.057.4-.086.594-.148.152-.052.3-.118.454-.171s.3-.11.446-.17a12.828,12.828,0,0,0,1.56-.738c.046-.027.093-.058.134-.085a8.793,8.793,0,0,0,1.2-.864c.039-.033.082-.064.118-.1s.068-.053.1-.08a6.477,6.477,0,0,0,.693-.746c.046-.058.079-.121.121-.178s.083-.126.129-.19c.063-.1.146-.2.2-.3a4.449,4.449,0,0,0,.3-.635.39.39,0,0,0,.028-.1c.017-.042.025-.085.039-.126.041-.135.086-.267.116-.4a3.6,3.6,0,0,0,.069-.644.5.5,0,0,0,.006-.1l.008-2.917a3.837,3.837,0,0,1-.193,1.15" transform="translate(51.794 5.081)" fill="#c1e8fa"/>
          <path id="Path_87823" data-name="Path 87823" d="M188.575,115.265c4.373,2.526,4.4,6.627.053,9.155a17.433,17.433,0,0,1-15.814,0c-4.386-2.532-4.411-6.634-.053-9.164s11.43-2.526,15.814,0" transform="translate(51.797 2.74)" fill="#def6ff"/>
          <rect id="Rectangle_7338" data-name="Rectangle 7338" width="3.578" height="109.66" transform="translate(230.692 14.375)" fill="#c1e8fa"/>
          <g id="Group_35484" data-name="Group 35484" transform="translate(214.934 32.931)">
            <g id="Group_35483" data-name="Group 35483" transform="translate(0 0)">
              <g id="Group_35482" data-name="Group 35482" clip-path="url(#clip-path-2)">
                <g id="Group_35475" data-name="Group 35475" transform="translate(20.895 9.794)">
                  <g id="Group_35474" data-name="Group 35474">
                    <g id="Group_35473" data-name="Group 35473" clip-path="url(#clip-path-3)">
                      <path id="Path_87824" data-name="Path 87824" d="M183.372,69.23a44.122,44.122,0,0,1,5.189-2.579c-.352.437-.732.884-1.134,1.329a44.611,44.611,0,0,0-4.054,2.078c-1.272.734-2.5,1.522-3.669,2.341a4.8,4.8,0,0,1-.947-.162c1.214-.881,2.477-1.731,3.8-2.526.243-.143.481-.286.723-.427a1.091,1.091,0,0,1,.1-.053" transform="translate(-178.755 -66.653)" fill="#27202d"/>
                    </g>
                  </g>
                </g>
                <g id="Group_35478" data-name="Group 35478" transform="translate(20.297)">
                  <g id="Group_35477" data-name="Group 35477">
                    <g id="Group_35476" data-name="Group 35476" clip-path="url(#clip-path-4)">
                      <path id="Path_87825" data-name="Path 87825" d="M182.174,60.868a3.045,3.045,0,0,1,.335-.17,2.577,2.577,0,0,1,2.773.259l-.564.84a2.185,2.185,0,0,0-2.284-.236c-.08.035-.154.079-.237.121a5.4,5.4,0,0,0-1.715,1.791c-.7,1.078-1.635,3.154-1.33,4.477.292,1.277,1.708,1.591,4.092.892l.278-.079-.028,4.078c-.24.141-.479.284-.721.427l.025-3.442c-2.535.677-3.995.25-4.342-1.283-.412-1.769.842-4.336,1.565-5.438a6.7,6.7,0,0,1,2.155-2.238" transform="translate(-178.374 -60.417)" fill="#27202d"/>
                    </g>
                  </g>
                </g>
                <g id="Group_35481" data-name="Group 35481" transform="translate(0 4.563)">
                  <g id="Group_35480" data-name="Group 35480">
                    <g id="Group_35479" data-name="Group 35479" clip-path="url(#clip-path-5)">
                      <path id="Path_87826" data-name="Path 87826" d="M198.721,64.922l6.376-1.538c13.256-.936,15.581,8.907,15.7,9.424l-8.772,9.083-4.7-1.444,1.074,41.068-31.525,17.642L177,98.513l-3.952,6.99-7.6.646,1.535-10.17c3.1-11.616,17.276-21.907,18.019-22.451a5.057,5.057,0,0,0,1.343.61,4.67,4.67,0,0,0,.946.16,6.592,6.592,0,0,0,3.712-1.015,17.562,17.562,0,0,0,4.012-3.4c.4-.445.784-.892,1.134-1.329a32.856,32.856,0,0,0,2.568-3.63" transform="translate(-165.454 -63.323)" fill="#f74c72"/>
                    </g>
                  </g>
                </g>
              </g>
            </g>
          </g>
          <path id="Path_87827" data-name="Path 87827" d="M176.6,84.7l8.648-6.184S187,91.335,181.434,92.838s-6.255-7.114-4.829-8.134" transform="translate(55.482 -17.152)" fill="#f7668b"/>
          <path id="Path_87828" data-name="Path 87828" d="M194.387,75.466a44.024,44.024,0,0,1,5.192-2.578c-.355.434-.73.883-1.137,1.327a44.782,44.782,0,0,0-4.054,2.077c-1.274.737-2.5,1.524-3.67,2.342a4.467,4.467,0,0,1-.946-.163c1.213-.88,2.48-1.728,3.8-2.524.245-.146.481-.287.727-.426a.636.636,0,0,1,.091-.055" transform="translate(63.364 -20.368)" fill="#27202d"/>
          <path id="Path_87829" data-name="Path 87829" d="M193.2,67.1a3.444,3.444,0,0,1,.33-.17,2.581,2.581,0,0,1,2.777.262l-.569.839a2.2,2.2,0,0,0-2.286-.237c-.08.038-.154.079-.236.126a5.478,5.478,0,0,0-1.717,1.789c-.7,1.078-1.634,3.156-1.326,4.475.289,1.277,1.7,1.59,4.086.892l.281-.079-.024,4.08c-.247.138-.484.281-.727.426l.025-3.443c-2.534.68-3.993.251-4.34-1.282-.408-1.769.845-4.334,1.563-5.438A6.706,6.706,0,0,1,193.2,67.1" transform="translate(63.147 -23.927)" fill="#27202d"/>
          <path id="Path_87830" data-name="Path 87830" d="M209.741,71.158l6.379-1.536c13.255-.936,15.573,8.9,15.7,9.422l-8.772,9.081-4.7-1.442,1.078,41.07-31.529,17.641.129-40.643-3.959,6.987-7.593.646,1.539-10.17c3.1-11.615,17.271-21.907,18.019-22.448a5.193,5.193,0,0,0,1.338.606,4.366,4.366,0,0,0,.946.162,6.565,6.565,0,0,0,3.712-1.016,17.464,17.464,0,0,0,4.014-3.4c.405-.443.782-.892,1.136-1.326a32.621,32.621,0,0,0,2.568-3.632" transform="translate(55.77 -22.267)" fill="#feb623"/>
          <path id="Path_87831" data-name="Path 87831" d="M187.413,91.36l8.646-6.184s1.75,12.815-3.817,14.318-6.258-7.114-4.829-8.134" transform="translate(61.651 -13.352)" fill="#e29813"/>
          <path id="Path_87832" data-name="Path 87832" d="M204.306,81.268A44.177,44.177,0,0,1,209.5,78.69c-.352.435-.73.883-1.134,1.329a43.683,43.683,0,0,0-4.061,2.077c-1.271.734-2.494,1.522-3.671,2.342a4.976,4.976,0,0,1-.944-.163c1.216-.88,2.484-1.731,3.8-2.526.237-.143.481-.286.721-.426.031-.019.061-.038.094-.055" transform="translate(69.026 -17.054)" fill="#27202d"/>
          <path id="Path_87833" data-name="Path 87833" d="M203.115,72.906c.111-.064.223-.119.331-.17a2.584,2.584,0,0,1,2.779.261l-.567.839a2.192,2.192,0,0,0-2.286-.236c-.077.036-.157.079-.232.123a5.433,5.433,0,0,0-1.718,1.789c-.7,1.078-1.632,3.156-1.331,4.477.286,1.277,1.7,1.591,4.089.892l.281-.08-.03,4.081c-.24.14-.485.283-.721.426l.025-3.442c-2.537.677-3.995.25-4.347-1.283-.407-1.767.85-4.336,1.566-5.438a6.757,6.757,0,0,1,2.16-2.238" transform="translate(68.809 -20.615)" fill="#27202d"/>
          <path id="Path_87834" data-name="Path 87834" d="M219.659,76.96l6.381-1.538c13.256-.936,15.578,8.907,15.7,9.425l-8.772,9.081-4.7-1.444,1.078,41.07L197.812,151.2l.129-40.644-3.957,6.99-7.593.646,1.539-10.17c3.1-11.615,17.268-21.907,18.014-22.451a5.138,5.138,0,0,0,1.342.609,4.808,4.808,0,0,0,.944.162,6.606,6.606,0,0,0,3.715-1.016,17.786,17.786,0,0,0,4.017-3.4c.4-.445.782-.892,1.133-1.327a32.337,32.337,0,0,0,2.565-3.632" transform="translate(61.433 -18.957)" fill="#ff5138"/>
          <path id="Path_87835" data-name="Path 87835" d="M197.331,97.16l8.651-6.181s1.75,12.813-3.822,14.318-6.255-7.118-4.829-8.137" transform="translate(67.313 -10.041)" fill="#e83421"/>
          <path id="Path_87836" data-name="Path 87836" d="M223.853,91.948a44.3,44.3,0,0,1,5.195-2.578c-.355.435-.734.881-1.142,1.326a45.422,45.422,0,0,0-4.053,2.078c-1.271.735-2.5,1.521-3.668,2.341a4.531,4.531,0,0,1-.947-.162c1.213-.881,2.479-1.73,3.8-2.524.242-.145.478-.287.721-.426a.928.928,0,0,1,.094-.055" transform="translate(80.185 -10.957)" fill="#27202d"/>
          <path id="Path_87837" data-name="Path 87837" d="M222.662,83.584c.11-.061.218-.119.33-.17a2.566,2.566,0,0,1,2.774.264l-.565.837a2.2,2.2,0,0,0-2.286-.237c-.077.038-.154.079-.236.124a5.43,5.43,0,0,0-1.712,1.791c-.707,1.078-1.635,3.156-1.334,4.475.294,1.277,1.706,1.59,4.092.891l.278-.077-.027,4.08c-.243.138-.481.281-.721.426l.025-3.443c-2.537.68-3.995.251-4.342-1.282-.408-1.769.845-4.334,1.565-5.438a6.685,6.685,0,0,1,2.158-2.24" transform="translate(79.968 -14.518)" fill="#27202d"/>
          <path id="Path_87838" data-name="Path 87838" d="M239.207,87.5l5.575-1.225c10.44,2.174,14.786,11.627,14.786,11.627l-7.056,6.565-4.7-1.442,1.081,41.068-31.53,17.642.126-40.644-3.957,6.989-7.592.646,1.539-10.17c3.093-11.615,17.272-21.907,18.016-22.449a5.012,5.012,0,0,0,1.342.606,4.4,4.4,0,0,0,.947.163,6.575,6.575,0,0,0,3.709-1.016,17.324,17.324,0,0,0,4.012-3.4c.407-.445.787-.892,1.14-1.326a34.068,34.068,0,0,0,2.565-3.632" transform="translate(72.591 -12.722)" fill="#120f1f"/>
          <path id="Path_87839" data-name="Path 87839" d="M216.881,107.84l8.64-6.183s1.756,12.817-3.814,14.318-6.255-7.116-4.826-8.135" transform="translate(78.473 -3.944)" fill="#32293a"/>
          <path id="Path_87840" data-name="Path 87840" d="M294.384,99.639l-86.591-50c-.5-.284-1.005-.55-1.535-.8-.181-.086-.361-.157-.545-.24-.311-.137-.614-.28-.938-.4-.03-.013-.075-.025-.11-.041-.73-.283-1.48-.533-2.248-.757-.06-.016-.115-.042-.174-.06-.181-.05-.369-.085-.542-.132-.432-.113-.864-.223-1.294-.319-.119-.027-.232-.061-.353-.085-.167-.035-.35-.057-.531-.093-.361-.069-.729-.132-1.1-.192-.148-.022-.291-.055-.443-.075s-.333-.036-.5-.057c-.347-.044-.69-.082-1.04-.116-.167-.014-.325-.044-.5-.055-.156-.016-.313-.016-.471-.025-.358-.027-.713-.044-1.081-.058-.165-.008-.338-.024-.511-.027-.14,0-.276,0-.418,0-.385-.006-.773,0-1.161,0-.19,0-.379,0-.573,0-.11,0-.221.017-.338.02-.471.024-.939.057-1.411.094-.192.019-.383.022-.575.039-.058.006-.113.02-.174.025-.807.085-1.594.193-2.378.331-.046.006-.082.008-.121.016-.22.042-.441.1-.663.143-.391.077-.784.156-1.167.247-.275.069-.542.148-.814.22-.363.1-.735.2-1.087.311-.072.025-.156.041-.231.066-.129.041-.24.1-.368.141-.562.19-1.1.4-1.642.617-.2.086-.4.17-.6.259a20.874,20.874,0,0,0-1.964.994l-.254.148c-.192.118-.358.24-.542.361-.25.167-.512.33-.751.5-.209.151-.391.308-.584.465-.215.174-.441.347-.641.528-.038.036-.088.068-.127.1-.273.25-.52.5-.752.762-.05.055-.1.113-.146.167-.134.154-.276.309-.4.467-.055.071-.091.143-.141.217a8.476,8.476,0,0,0-.506.741c-.053.1-.137.193-.2.294-.024.05-.041.1-.066.154a6.417,6.417,0,0,0-.316.677c-.055.123-.129.239-.176.361-.016.041-.02.086-.033.129-.075.212-.129.427-.189.639-.033.14-.088.275-.116.413a.624.624,0,0,0-.013.112c-.042.221-.053.445-.074.669a3.889,3.889,0,0,0-.05.421c0,.063-.006.123-.006.185q0,1.263-.006,2.528c0-.2.036-.4.053-.6a6.123,6.123,0,0,1,.079-.672c.03-.173.083-.347.126-.522.058-.214.11-.427.187-.641.06-.167.138-.328.206-.49.1-.229.2-.454.32-.675.08-.151.176-.3.267-.448.152-.251.317-.5.5-.743.105-.143.221-.284.342-.423a10.4,10.4,0,0,1,.888-.957c.113-.113.218-.225.335-.335.2-.182.429-.357.65-.534.192-.154.375-.309.578-.459.239-.173.5-.338.756-.5s.511-.344.789-.507a21.844,21.844,0,0,1,1.973-1c.2-.088.4-.171.6-.254.529-.221,1.071-.426,1.621-.614.212-.074.416-.151.635-.217.341-.107.7-.2,1.046-.3.28-.079.555-.159.847-.228.375-.091.759-.168,1.147-.247.265-.052.525-.113.8-.162.784-.137,1.579-.247,2.377-.331.25-.024.5-.039.743-.061.474-.039.955-.074,1.433-.1.294-.014.586-.017.881-.025.388-.006.776-.008,1.167,0,.316,0,.638.014.96.027.353.014.708.031,1.057.053.325.024.652.052.971.082.352.035.7.074,1.051.119q.467.059.928.13c.379.058.746.126,1.118.195.291.053.573.112.856.174.449.1.884.209,1.323.324.229.061.47.121.7.185q1.159.337,2.248.759c.361.14.705.292,1.048.445.184.082.371.157.553.24q.792.375,1.533.8l86.591,50c4.124,2.377,6.18,5.507,6.177,8.63l0-2.528c.008-3.124-2.05-6.255-6.172-8.633" transform="translate(53.279 -35.655)" fill="#82c2de"/>
          <path id="Path_87841" data-name="Path 87841" d="M296.035,99.335c8.791,5.074,8.841,13.34.1,18.414s-23,5.077-31.788,0l-86.6-50c-8.8-5.08-8.834-13.34-.1-18.415s22.989-5.08,31.792,0Zm-30.591,17.777c8.179,4.728,21.464,4.728,29.595,0s8.093-12.418-.1-17.146l-86.591-50c-8.2-4.73-21.466-4.725-29.6,0s-8.1,12.416.093,17.146Z" transform="translate(52.72 -35.985)" fill="#def6ff"/>
          <path id="Path_87842" data-name="Path 87842" d="M302.609,104.552c-.025.242-.038.482-.083.718-.035.189-.09.369-.14.556-.063.231-.118.465-.2.7-.066.176-.145.35-.226.525-.105.242-.209.482-.333.719-.091.17-.2.331-.3.5-.163.265-.333.529-.528.79-.185.243-.371.487-.578.726-.053.06-.105.121-.157.184-.292.316-.616.625-.947.931-.218.192-.455.379-.685.562-.209.166-.407.338-.63.5-.258.187-.542.364-.82.547s-.54.366-.839.539a23.419,23.419,0,0,1-2.108,1.067c-.211.1-.432.185-.652.275-.562.24-1.145.457-1.739.661-.223.077-.438.157-.664.229-.38.116-.759.22-1.142.324-.3.083-.6.168-.9.242-.4.1-.8.174-1.213.259-.287.06-.587.127-.883.179-.837.149-1.69.264-2.546.355-.269.028-.54.046-.807.068-.5.041-1.008.077-1.525.1-.324.016-.646.02-.966.027-.413.008-.828.013-1.243,0-.347,0-.677-.014-1.026-.028-.382-.013-.765-.033-1.155-.06-.341-.025-.683-.052-1.027-.086-.379-.036-.754-.08-1.133-.127-.335-.042-.672-.09-1-.141-.408-.061-.8-.132-1.2-.207-.306-.061-.616-.118-.925-.188-.473-.1-.936-.22-1.406-.344-.253-.068-.507-.132-.759-.2-.828-.24-1.632-.511-2.414-.817-.372-.145-.734-.3-1.093-.462-.209-.091-.413-.174-.619-.272q-.846-.4-1.64-.855l-86.6-50c-4.427-2.557-6.638-5.913-6.629-9.271,0,.844,0,1.686,0,2.526-.008,3.358,2.2,6.717,6.627,9.276l86.595,49.994c.531.3,1.081.591,1.645.859.188.086.383.163.575.25.333.149.668.3,1.007.44.044.016.088.027.129.042.779.3,1.588.572,2.413.814.063.019.123.042.189.063.187.053.385.091.573.143.463.119.925.239,1.4.342.126.027.244.064.369.091.189.038.386.061.573.1.39.077.779.145,1.177.206.16.025.324.06.484.082s.361.039.537.063c.374.046.746.088,1.122.124.179.019.355.046.533.06s.335.014.506.028c.379.025.768.046,1.147.06.192.008.38.025.567.028.154.006.308,0,.463,0,.407,0,.822,0,1.227,0,.206,0,.415,0,.62,0,.118,0,.243-.017.361-.024.509-.02,1.013-.058,1.514-.1.209-.016.418-.02.627-.041.063-.006.121-.02.187-.027q1.291-.134,2.54-.355c.049-.008.1-.011.151-.017.258-.047.51-.113.768-.168.393-.079.793-.159,1.177-.251.313-.074.616-.162.917-.247.38-.1.757-.2,1.128-.32.088-.027.174-.047.261-.075.143-.046.269-.105.412-.156.592-.2,1.169-.421,1.736-.657.22-.093.438-.182.65-.28a23.1,23.1,0,0,0,2.113-1.065c.09-.053.176-.107.267-.159.215-.13.4-.27.6-.4.264-.173.534-.344.779-.522.228-.165.434-.338.647-.511s.459-.361.668-.553c.046-.039.1-.075.138-.113.3-.269.561-.545.815-.818.055-.063.1-.121.152-.179.14-.167.292-.331.424-.5.06-.075.1-.156.154-.231.2-.261.372-.525.536-.789.066-.11.156-.215.215-.324.039-.058.05-.118.083-.176.126-.229.228-.46.332-.7.052-.135.135-.269.187-.408.022-.049.025-.1.046-.148.077-.225.132-.448.189-.674.046-.151.1-.3.132-.449.006-.038,0-.082.013-.121.047-.237.058-.478.085-.716.011-.151.044-.3.049-.457,0-.066,0-.13,0-.2q0-1.263.011-2.529c0,.218-.038.435-.057.653" transform="translate(52.718 -31.278)" fill="#c1e8fa"/>
          <path id="Path_87843" data-name="Path 87843" d="M192.637,68.025a8.892,8.892,0,0,0-2.452,4.419l-.734.339s.7-3.7,3.186-5.613Z" transform="translate(63.181 -23.631)" fill="#27202d"/>
          <path id="Path_87844" data-name="Path 87844" d="M202.552,73.829a8.926,8.926,0,0,0-2.451,4.419l-.73.339s.71-3.706,3.181-5.617Z" transform="translate(68.843 -20.319)" fill="#27202d"/>
          <path id="Path_87845" data-name="Path 87845" d="M222.1,84.506a8.946,8.946,0,0,0-2.455,4.419l-.727.339s.7-3.706,3.183-5.614Z" transform="translate(80.002 -14.224)" fill="#27202d"/>
          <path id="Path_87846" data-name="Path 87846" d="M181.616,61.79a8.948,8.948,0,0,0-2.451,4.42l-.734.339s.707-3.7,3.184-5.617Z" transform="translate(56.891 -27.192)" fill="#27202d"/>
          <g id="Group_35487" data-name="Group 35487" transform="translate(0 137.314)" opacity="0.1">
            <g id="Group_35486" data-name="Group 35486">
              <g id="Group_35485" data-name="Group 35485" clip-path="url(#clip-path-6)">
                <path id="Path_87847" data-name="Path 87847" d="M99.049,188.125l-.5-.285,102.885-59.793,119.507,68.994-59.388,34.51.5.285-102.885,59.8-119.508-69Z" transform="translate(-39.664 -128.049)"/>
              </g>
            </g>
          </g>
          <path id="Path_87848" data-name="Path 87848" d="M115.426,161.387c14.48,8.364,14.572,21.925.162,30.293s-37.812,8.362-52.3,0-14.576-21.92-.168-30.293,37.806-8.374,52.3,0" transform="translate(-38.736 43.001)" fill="#b9b9b9" opacity="0.47"/>
          <path id="Path_87849" data-name="Path 87849" d="M66.1,91.883a43.653,43.653,0,0,0-2.907,8.037c-1.109,4.447,2.907,11.8,2.907,11.8s5.59-16.373,4.168-18.955-4.168-.877-4.168-.877" transform="translate(-28.314 -19.507)" fill="#723e24"/>
          <path id="Path_87850" data-name="Path 87850" d="M83.851,122.178s3.02,30.739,1.94,37.341-3.677,40.865-3.677,40.865a3.283,3.283,0,0,1-2.515,1.162c-3.467.289-3.95-.81-3.95-.81S69.4,172.5,73.179,162.71l-4.216-32.784v-4.558s11.009-1.368,14.888-3.19" transform="translate(-22.471 10.727)" fill="#ffaa83"/>
          <path id="Path_87851" data-name="Path 87851" d="M79.6,163.031a8.743,8.743,0,0,1-.321-3.14s-4.863,1.976-8.031.146a8.7,8.7,0,0,1-.174,3.733c-.556,1.537,7.827,1.344,8.526-.739" transform="translate(-20.429 47.688)" fill="#615a8e"/>
          <path id="Path_87852" data-name="Path 87852" d="M72.886,161.7s-2.709,4.447.343,5.819c3.053,1.388,3.053-.762,8.724,4.136,5.689,4.92,10.869,2.9,11.617,1.867,1.8-2.493-1.224-5.057-13.845-11.8Z" transform="translate(-19.713 49.46)" fill="#615a8e"/>
          <path id="Path_87853" data-name="Path 87853" d="M73.344,168.7c2.933,1.636,3.059-.762,8.738,4.136,5.675,4.921,10.794,2.849,11.613,1.867a1.047,1.047,0,0,0,.188-.616c-5.311,1.976-8.18-.8-10.5-2.693-2.4-1.942-4.416-2.717-8.059-3.536s-2.3-3.784-2.3-3.784c.008-.584-.107-3.558-.507-3.59-.01,3.453-2.386,6.433.832,8.215" transform="translate(-19.829 48.273)" fill="#484475"/>
          <path id="Path_87854" data-name="Path 87854" d="M87.828,118.682s2.859,27.313,1.226,43-3.22,33.063-2.822,41.98c.131,2.948-11.025,6.223-11.8,0-.937-7.423-4.188-28.266.3-37.523l-7.348-40.148s13.1-2.008,20.447-7.307" transform="translate(-24.021 7.301)" fill="#120f1f"/>
          <path id="Path_87855" data-name="Path 87855" d="M75.456,123.4s2.883,32.61,1.853,39.608S73.6,206.735,73.6,206.735H67.619s-6.392-31.654-2.368-40.338l-4.024-34.788v-4.829s10.51-1.449,14.229-3.38" transform="translate(-30.053 11.923)" fill="#ffaa83"/>
          <path id="Path_87856" data-name="Path 87856" d="M64.756,165.528s-2.744,4.483.343,5.881,3.083-.772,8.817,4.18,10.968,2.923,11.724,1.875c1.812-2.517-1.224-6.58-13.966-13.387Z" transform="translate(-27.696 51.791)" fill="#615a8e"/>
          <path id="Path_87857" data-name="Path 87857" d="M65.219,171.889c2.96,1.649,3.083-.774,8.817,4.178s10.891,2.871,11.722,1.877a1.13,1.13,0,0,0,.188-.62c-5.36,2-8.251-.81-10.6-2.717-2.418-1.956-4.457-2.74-8.136-3.566-3.673-.844-2.327-3.835-2.327-3.835.02-.58-.1-3.574-.507-3.618-.014,3.485-2.4,6.491.844,8.3" transform="translate(-27.807 51.312)" fill="#484475"/>
          <path id="Path_87858" data-name="Path 87858" d="M61.867,122.918s-5.2,7.8-1.366,26.393,5.158,24.048,5.158,24.048-.911,2.344,0,17.237c.849,13.977.873,13.063,1.192,19.811.131,2.677,10.938,3.917,11.386-1.7.946-11.97,2-43.109,2-43.109l2.6-29.729,13.12-17.185s-27.028,9.136-34.087,4.237" transform="translate(-32.148 7.3)" fill="#32293a"/>
          <path id="Path_87859" data-name="Path 87859" d="M92.059,106.735a9.523,9.523,0,0,1,4.277-1.766c3.026-.62,3.873.048,5.713.572s3.164,1.089,2.891,2-4.156,2.748-6.645,2.392c-1.529-.242-5.115,2.176-5.97,2.255s-1.131-4.873-.265-5.457" transform="translate(-0.354 -6.384)" fill="#ffaa83"/>
          <path id="Path_87860" data-name="Path 87860" d="M92.282,110.5c.855-.079,4.441-2.5,5.97-2.255a9.937,9.937,0,0,0,5.657-1.467.4.4,0,0,0-.063-.109c-.426-.483-1.679.006-2.517-.131s-3.35.255-5,.121-4.481,1.958-4.481,1.958l-.271.206c.123.962.366,1.715.709,1.677" transform="translate(-0.311 -4.691)" fill="#f29c79"/>
          <path id="Path_87861" data-name="Path 87861" d="M71.939,95.748s4.315-6.728,9.794-.2c3.562,4.241,10.487,21.8,12.645,23.149,1.067.661,17.728-1.459,17.728-1.459s-2.277,2.689,1.416,7.158c0,0-21.136,8.9-25.122,4.758-6.831-7.114-18.851-25.527-16.461-33.406" transform="translate(-19.857 -18.166)" fill="#0e9bcc"/>
          <path id="Path_87862" data-name="Path 87862" d="M62.529,99.281c2.2-1.944,25.213-8.352,27.884-6.354,1.754,1.323,2.243,1.434,5.3,10.091a18.932,18.932,0,0,1-.776,13.5c-3.96,8.641-3.309,13.051-3.1,15.4.315,3.487,3.891,9.259,3.206,12.38-.919,4.243-28.512,13.053-34.082,4.243-.065-.111-1.39-.636,1.568-10.1,6.291-20.183-8.012-32.1,0-39.154" transform="translate(-31.236 -18.316)" fill="#00aeef"/>
        </g>
      </g>
      <g id="Group_35491" data-name="Group 35491" transform="translate(37.151 124.424)">
        <g id="Group_35490" data-name="Group 35490" clip-path="url(#clip-path-7)">
          <rect id="Rectangle_7345" data-name="Rectangle 7345" width="0.005" height="0.03" transform="matrix(0.999, -0.045, 0.045, 0.999, -0.001, 0)" fill="url(#linear-gradient)"/>
        </g>
      </g>
      <g id="Group_35502" data-name="Group 35502" transform="translate(19.233 37.776)">
        <g id="Group_35507" data-name="Group 35507" transform="translate(0 0)">
          <path id="Path_87864" data-name="Path 87864" d="M76.659,92.322s-1.24,5.625,0,8.584-3.268,3.914-5.4,3.175-5.528-2.226-5.078-4.121c.452-1.914,2.368-8.154,1.13-10.386s9.349,2.748,9.349,2.748" transform="translate(-43.74 -60.34)" fill="#f79f7c"/>
          <path id="Path_87865" data-name="Path 87865" d="M68.6,83.833s-6.449,6.392-4.706,13.139c.959,3.713,5.249,6.151,7.689,8.058s7.338,6.28,11.2,3.145c3.975-3.23,4.907-17.938-.1-24.342-4.888-6.246-14.079,0-14.079,0" transform="translate(-46.571 -69.18)" fill="#ffaa83"/>
          <path id="Path_87866" data-name="Path 87866" d="M84.4,88.234s.617,4.368-9.208,5.737c-2.408.336-1.969,7.687-3.857,5.836-.718-.706-2.586-2.079-2.816-1.031-1.071,5.04,3.859,3.663,3.293,7.138-1.356,8.462-11.193-5.433-9.584-14.85,1.193-7,5.61-12.913,15.606-11.164s9.341,11.474,9.341,11.474-1.082-3.321-2.776-3.141" transform="translate(-48.287 -70.809)" fill="#723e24"/>
          <path id="Path_87867" data-name="Path 87867" d="M65.213,93.138a6.434,6.434,0,0,0,4.814-1.81s.779.917-.321,3.815c0,0-3.5.8-5.448.342s.3-1.764.955-2.347" transform="translate(-46.696 -57.755)" fill="#ff4d75"/>
          <path id="Path_87868" data-name="Path 87868" d="M98.342,167.892l.212,74.59,6.539,3.792-.212-74.586Z" transform="translate(-15.078 -1.616)" fill="#363b67"/>
          <path id="Path_87869" data-name="Path 87869" d="M102.008,171.688l.214,74.586,6.578-3.792-.212-74.59Z" transform="translate(-12.206 -1.615)" fill="#0f1446"/>
          <path id="Path_87870" data-name="Path 87870" d="M98.342,169.562l6.539,3.8,6.578-3.8-6.537-3.8Z" transform="translate(-15.078 -3.286)" fill="#bfd4dc"/>
          <path id="Path_87871" data-name="Path 87871" d="M51.66,147.557l.294,63.026,6.537,3.792v-62.85Z" transform="translate(-51.66 -17.551)" fill="#363b67"/>
          <path id="Path_87872" data-name="Path 87872" d="M55.371,147.081l.212,70.644,6.578-3.792-.2-70.653Z" transform="translate(-48.752 -20.902)" fill="#4e5381"/>
          <path id="Path_87873" data-name="Path 87873" d="M178.4,128.345l.214,74.588,6.533,3.8-.214-74.591Z" transform="translate(47.657 -32.605)" fill="#363b67"/>
          <path id="Path_87874" data-name="Path 87874" d="M182.062,132.141l.214,74.59,6.582-3.8-.214-74.588Z" transform="translate(50.528 -32.605)" fill="#0f1446"/>
          <path id="Path_87875" data-name="Path 87875" d="M178.4,130.016l6.533,3.8,6.583-3.8-6.539-3.8Z" transform="translate(47.657 -34.276)" fill="#bfd4dc"/>
          <path id="Path_87876" data-name="Path 87876" d="M51.66,147.557l.016,6.751,89.914,52.25-.021-6.755Z" transform="translate(-51.66 -17.551)" fill="#363b67"/>
          <path id="Path_87877" data-name="Path 87877" d="M102.068,214.757l.021,6.755,149.456-86.288-.021-6.751Z" transform="translate(-12.158 -32.506)" fill="#0f1446"/>
          <path id="Path_87878" data-name="Path 87878" d="M51.66,185.47l89.909,52.246,149.457-86.285L201.113,99.175Z" transform="translate(-51.66 -55.464)" fill="#4e5381"/>
          <path id="Path_87879" data-name="Path 87879" d="M73.455,125.608c1.12-4.714,8.958-12.249,21.159-12.976s9.06-4.343,20.226-6.041,5.956,18.7,29.168,24.711c8.83,2.292,76.424,8.53,67.194,16.291s-38.216,15.984-62.14,12.825-18.986,4.719-25.531,4.263-55.133-17.8-50.075-39.074" transform="translate(-36.969 -42.613)" fill="#ff4d75"/>
          <path id="Path_87880" data-name="Path 87880" d="M112.592,166.137c3.959-.182,3.495-11.671,10.863-12.471-3.441-1.607-6.94-3.161-10-4.355-10.788-4.216-19.044-12.6-24.446-24.173A17.536,17.536,0,0,0,76.285,114.79a13.079,13.079,0,0,0-2.839,5.446c-4.037,20.8,18.979,46.84,39.146,45.9" transform="translate(-37.033 -36.371)" fill="#ef3566"/>
          <path id="Path_87881" data-name="Path 87881" d="M72.6,116.311a10.2,10.2,0,0,1,4.867.731c3.107,1.092,3.528,2.19,4.93,3.675s2.294,2.767,1.546,3.452-5.321.251-7.38-1.46c-1.289-1.054-5.883-.79-6.713-1.2s1.62-5.137,2.75-5.2" transform="translate(-39.798 -30.027)" fill="#ffaa83"/>
          <path id="Path_87882" data-name="Path 87882" d="M69.854,119.821c.83.41,5.424.146,6.715,1.2a10.39,10.39,0,0,0,5.965,1.772.309.309,0,0,0,0-.146c-.116-.672-1.529-.908-2.231-1.5s-3.2-1.62-4.643-2.651-5.182-.663-5.182-.663l-.368.051c-.406.953-.591,1.779-.258,1.935" transform="translate(-39.799 -28.338)" fill="#f29c79"/>
          <path id="Path_87883" data-name="Path 87883" d="M64.566,96.639S70.12,93.9,71.461,99.7s-2.693,27.409-1.453,29.849c.606,1.2,17.028,8.422,17.028,8.422s-3.551,1.229-2.617,7.4c0,0-24.222-3.42-25.614-9.448-2.366-10.346-.735-33.313,5.762-39.28" transform="translate(-53.043 -52.567)" fill="#5bbbe6"/>
          <path id="Path_87884" data-name="Path 87884" d="M103.222,155.959c1.953,1.231-20.178,24.45-13.877,28.527s10.836-5.606,25-13.934c13.548-7.966,16.434-14.447,28.354-.646,6.539,7.577,30.891-4.3,32.371-15.216s1.853-18.041-12.858-23.738c-14.282-5.529-81.2,11.025-58.992,25.006" transform="translate(-23.016 -31.418)" fill="#feb623"/>
          <path id="Path_87885" data-name="Path 87885" d="M106.46,150.507c3.45,2.172-33.748,13.645-18.833,16.98,7.325,1.637-5.758,19.2,9.815,17.078s43.226-38.826,42.2-18.414c-.758,15.009,37.192-5.995,38.673-16.912.116-.835.219-1.639.314-2.429-3.277.075-37.164,21.079-38.211,6.519-1.022-14.251-33.388,21.482-42.971,23.6s27.76-27.93,15.45-26.514c-8.142.931-6.542-7.662-4.53-13.6-6.856,4.261-9.171,9.111-1.9,13.689" transform="translate(-26.253 -25.966)" fill="#ea9d15"/>
          <path id="Path_87886" data-name="Path 87886" d="M125.8,163.268s12.075-19.4,24.678-20.1,16.88-24.709,22.42-25.03,6.63,2.551,8.868,9.086,5.153,11.488,4.739,15.38-22.9,38.987-54.4,38.243-8.171-13.655-6.3-17.576" transform="translate(-1.455 -40.626)" fill="#3998d8"/>
          <path id="Path_87887" data-name="Path 87887" d="M132.1,176.842c31.506.744,53.992-34.347,54.4-38.245s-2.5-8.84-4.739-15.378c.546,17.908-13.878,28.968-22.941,36.545s-17.2,10.2-27.7,11.676-10.762-6.767-10.762-6.767c-5.511,5.185-10.286,11.649,11.742,12.17" transform="translate(-1.455 -36.622)" fill="#2686bc"/>
          <path id="Path_87888" data-name="Path 87888" d="M144.566,141.986s-7.925-1.819-8.826-6.407-.283-5.5,1.509-4.106,6.708,4.985,6.632,3.964-1.271-2.869-.376-2.98,4.362,5.528,4.362,5.528l-.263,4.967Z" transform="translate(8.491 -26.173)" fill="#ffaa83"/>
          <g id="Group_35494" data-name="Group 35494" transform="translate(174.655 217.496)" opacity="0.1">
            <g id="Group_35493" data-name="Group 35493" transform="translate(0 0)">
              <g id="Group_35492" data-name="Group 35492" clip-path="url(#clip-path-8)">
                <path id="Path_87889" data-name="Path 87889" d="M161.846,194.135c-14.522,8.379-14.605,21.976-.174,30.365s37.9,8.369,52.418-.006,14.605-21.98.184-30.359c-14.443-8.389-37.91-8.379-52.428,0" transform="translate(-150.901 -187.847)"/>
              </g>
            </g>
          </g>
          <path id="Path_87890" data-name="Path 87890" d="M179.487,196.166c-.247.051-12.9-.346-10.069,4.053a7.164,7.164,0,0,0,6.254,3.4c1.893.055,5.35-.976,6.207-.457s5.146,3.267,7.6.495a4.126,4.126,0,0,0,.493-3.213c-.315-1.039-9.085-4.526-10.485-4.28" transform="translate(41.494 37.788)" fill="#feb623"/>
          <path id="Path_87891" data-name="Path 87891" d="M169.417,199.566a7.169,7.169,0,0,0,6.256,3.4c1.891.055,5.35-.974,6.207-.457s5.144,3.267,7.6.495a3.339,3.339,0,0,0,.584-1.586c-1.718,2.354-5.924,1.709-7.1.933a6.916,6.916,0,0,0-4.894-1c-1.659.315-5.254-.069-7.058-1.693a2.642,2.642,0,0,1-.814-2.841c-1.109.588-1.61,1.461-.784,2.746" transform="translate(41.494 38.441)" fill="#c47f10"/>
          <path id="Path_87892" data-name="Path 87892" d="M172.946,200.511c-9.072-1.19-18.595.289-15.073,4.928a9.435,9.435,0,0,0,7.9,3.536c2.413.022,6.828-1.126,7.909-.584s6.486,3.411,9.662.41c.64-.606,1.635-3.247,1.233-4.348s-9.854-3.7-11.636-3.942" transform="translate(29.85 41.674)" fill="#feb623"/>
          <path id="Path_87893" data-name="Path 87893" d="M161.333,119.038s-6.278-5.161-10.459-3.075c-4.2,2.085-4.524,3.142-2.332,3.716s8.052,2.253,7.195,2.827-3.059.736-2.59,1.515,7.042.067,7.042.067l3.774-3.237Z" transform="translate(20.134 -41.271)" fill="#ffaa83"/>
          <path id="Path_87894" data-name="Path 87894" d="M200.628,130.1s7.686.012,7.391,7.791c-.323,8.246-16.472,4.54-16.472,4.54s-14.045-2.017-18.315-4c-5.7-2.637-20.109-15.241-20.109-15.241s1.352-4.73,4.7-5.771c0,0,13.7,10.212,19.042,11.6,5.835,1.5,22.5.733,23.766,1.073" transform="translate(25.93 -39.355)" fill="#0e9bcc"/>
          <path id="Path_87895" data-name="Path 87895" d="M187.361,148.079s7.878,13.3.81,31.683c0,0-5.425,15.524-4.231,20.727,1.439,6.229,3.548,4.468,5.072,25.1,1.352,18.2,1.277,15.336.96,22.032-.1,2.12-8.624,3.922-9.99-1.408-3.5-13.627-11.988-42.143-10.434-58.635s2.546-31.923,2.546-31.923,9.858-2.881,15.267-7.581" transform="translate(41.84 -9.316)" fill="#120f1f"/>
          <path id="Path_87896" data-name="Path 87896" d="M185.9,153.264s7.919,11.837-2.78,27.468c0,0-8.048,17.575-6.949,23.471,1.156,6.1,3.106,5.589,5.2,24.227,1.325,11.847,2.16,14.839,1.22,22.469-.346,2.815-11.212,3.083-11.835-.9-2.2-13.827-12.546-43.59-10.994-60.092s4.865-35.067,4.865-35.067,14.083,2.411,21.271-1.578" transform="translate(32.28 -4.237)" fill="#32293a"/>
          <path id="Path_87897" data-name="Path 87897" d="M162.531,141.724s-1.877-8.761,12.782-14.011,23.7-5.066,23.887,3.11-3.609,19.086-4.14,22.774a32.33,32.33,0,0,0,1.764,18.454c3.506,8.393,5.157,16.393-18.07,17.759-4.053.242-19.151.162-17.017-9.246,2.681-11.762,2.491-29.106.794-38.84" transform="translate(34.17 -32.761)" fill="#00aeef"/>
          <path id="Path_87898" data-name="Path 87898" d="M185.114,129.536s6.747-3.574,9.733,3.7c3.17,7.7-12.55,11.861-12.55,11.861s-13.152,4.714-17.739,4.9c-6.108.245-24.013-4.587-24.013-4.587s-.794-4.958,1.713-7.486c0,0,16.29,2.97,21.555,1.74,5.744-1.346,20.046-9.844,21.3-10.133" transform="translate(13.488 -28.344)" fill="#5bbbe6"/>
          <path id="Path_87899" data-name="Path 87899" d="M169.769,122.637s1.534,6.2-1.493,9.97c-1.629,2.031,4.872,4.152,10.133,1.471,0,0,.467-10.6,4.367-14.294Z" transform="translate(40.528 -37.04)" fill="#ffaa83"/>
          <path id="Path_87900" data-name="Path 87900" d="M169.6,124.323a24.045,24.045,0,0,0,5.86-1.718l.232.158,1.188,1.7.689-.988s-1.2,6.458-9,5.055a13.964,13.964,0,0,0,1.031-4.209" transform="translate(41.067 -34.276)" fill="#f79f7c"/>
          <path id="Path_87901" data-name="Path 87901" d="M157.829,204.656a9.447,9.447,0,0,0,7.9,3.536c2.411.022,6.828-1.127,7.909-.584s6.486,3.411,9.662.408a5.1,5.1,0,0,0,1.033-2.071c-2.211,2.536-7.83,2.283-9.3,1.483a10.186,10.186,0,0,0-6.225-.992c-2.107.36-6.686.006-8.935-1.691a4.038,4.038,0,0,1-1.5-3.825c-1.424.649-1.56,2.394-.544,3.736" transform="translate(29.895 42.46)" fill="#c47f10"/>
          <path id="Path_87902" data-name="Path 87902" d="M173.262,109.028a14.231,14.231,0,0,0-7.185,10.612c-1.144,7.395-3.463,13.786.2,16.993,3.7,3.237,17.353,2.411,21.834-7.026s-1.2-24.871-14.849-20.578" transform="translate(36.877 -48.302)" fill="#ffaa83"/>
          <path id="Path_87903" data-name="Path 87903" d="M172.984,122.208s-1.768,12.56,4.371,21.289c3.473,4.952,3.56,8.721,3.083,10.992s9.8-6.965,5.35-17.444-8.83-14.837-8.83-14.837Z" transform="translate(45.16 -34.666)" fill="#723e24"/>
          <path id="Path_87904" data-name="Path 87904" d="M164.354,118.613a5.14,5.14,0,0,0,3.148,4.615c3.356,1.376,7.321,1.214,7.686,3.473s1.2,8.61,4.1,10.576c3.744,2.516,4.1-.384,5.646-2.109,2.1-2.344,7.618-11.083,3.209-20.592a11.223,11.223,0,0,0-12.035-6.233s-11.325,1.461-11.752,10.269" transform="translate(36.933 -48.391)" fill="#723e24"/>
          <path id="Path_87905" data-name="Path 87905" d="M173.993,123.184c-1.641,1.582-3.811,1.938-4.866.778s-.574-3.386,1.055-4.973,3.811-1.934,4.862-.772.566,3.386-1.051,4.967" transform="translate(41.066 -39.249)" fill="#ffaa83"/>
          <path id="Path_87906" data-name="Path 87906" d="M173.431,122.62s5.031-3.154,5.886-.594c.645,1.924-4.621,4.409-6.4,3.932s-.439-2.792.511-3.338" transform="translate(44.475 -35.826)" fill="#feb623"/>
          <g id="Group_35497" data-name="Group 35497" transform="translate(336.047 163.937)" opacity="0.1">
            <g id="Group_35496" data-name="Group 35496">
              <g id="Group_35495" data-name="Group 35495" clip-path="url(#clip-path-9)">
                <path id="Path_87936" data-name="Path 87936" d="M390.144,213.755l-61.291,35.617-71.19-41.1,61.293-35.621Z" transform="translate(-257.661 -172.648)"/>
              </g>
            </g>
          </g>
          <path id="Path_87937" data-name="Path 87937" d="M349.7,147.892l-.241,84.8-51.7,30.042.241-84.8Z" transform="translate(109.81 -28.111)" fill="#c1e8fa"/>
          <path id="Path_87938" data-name="Path 87938" d="M324.382,179.968l-.241,84.8L264.1,230.1l.243-84.8Z" transform="translate(83.432 -30.143)" fill="#acd9ea"/>
          <path id="Path_87939" data-name="Path 87939" d="M324.294,179.968l-.029,11.718-60.049-34.8.041-11.588Z" transform="translate(83.52 -30.143)" fill="#82c2de"/>
          <path id="Path_87940" data-name="Path 87940" d="M375.975,163.123l-51.7,30.045L264.238,158.5l51.691-30.043Z" transform="translate(83.538 -43.342)" fill="#def6ff"/>
          <path id="Path_87941" data-name="Path 87941" d="M304.343,202.006c0-.25-.025-.5-.043-.755-.007-.137-.016-.268-.032-.4-.025-.253-.046-.515-.079-.763-.016-.123-.025-.241-.039-.359-.02-.184-.053-.362-.075-.546-.041-.264-.075-.526-.116-.787-.03-.186-.071-.369-.1-.553-.048-.253-.095-.5-.143-.76-.048-.212-.095-.426-.139-.639-.039-.166-.075-.334-.114-.5-.053-.232-.12-.476-.178-.713-.043-.155-.075-.317-.121-.473s-.087-.294-.13-.441c-.162-.567-.332-1.131-.521-1.7-.012-.037-.025-.08-.037-.121-.184-.556-.378-1.1-.589-1.648-.05-.139-.105-.275-.162-.417-.18-.464-.367-.933-.573-1.4-.027-.071-.05-.128-.078-.2-.228-.515-.462-1.017-.7-1.527-.068-.13-.134-.262-.193-.394-.193-.4-.4-.785-.6-1.179-.071-.132-.127-.26-.2-.383-.262-.492-.526-.976-.81-1.448-.057-.109-.123-.214-.191-.323-.237-.412-.48-.81-.738-1.211-.075-.13-.162-.255-.237-.384-.326-.5-.655-.993-1-1.482-.055-.08-.116-.162-.169-.243-.351-.492-.712-.985-1.077-1.463-.068-.084-.132-.171-.191-.257-.111-.132-.214-.264-.323-.4-.159-.2-.325-.4-.487-.6-.118-.152-.253-.294-.373-.442-.145-.169-.291-.344-.442-.515-.3-.341-.6-.685-.917-1.011a.247.247,0,0,0-.062-.077c-.332-.357-.673-.7-1.015-1.038-.212-.212-.43-.421-.644-.621-.068-.061-.127-.127-.191-.189-.287-.264-.576-.53-.872-.785-.078-.071-.162-.143-.237-.205-.218-.184-.439-.373-.655-.553-.109-.091-.221-.175-.325-.26-.2-.155-.392-.309-.589-.458-.114-.091-.237-.177-.351-.268-.194-.141-.4-.282-.592-.43-.112-.075-.23-.161-.346-.237-.212-.146-.426-.287-.647-.424l-.287-.2c-.321-.2-.635-.392-.952-.576s-.612-.337-.91-.494c-.086-.048-.166-.091-.25-.132-.262-.137-.532-.26-.792-.383a1.077,1.077,0,0,0-.114-.052c-.275-.132-.555-.251-.822-.36-.3-.123-.585-.232-.876-.332-.07-.023-.146-.057-.219-.08-.36-.123-.715-.237-1.07-.326-.209-.062-.417-.109-.617-.157-.1-.018-.193-.048-.287-.071-.3-.066-.6-.118-.9-.166h-.025c-.271-.046-.535-.075-.8-.1-.091-.005-.177-.014-.26-.02-.2-.009-.383-.018-.571-.023-.089-.005-.177-.009-.255-.009-.2,0-.392,0-.589.009-.059.005-.127.005-.2.011a7.329,7.329,0,0,0-.74.061c-.05.005-.1.014-.153.023-.164.023-.332.052-.489.08-.339.062-.672.137-1,.228l-.039.014a9.209,9.209,0,0,0-.9.317c-.084.032-.168.071-.25.1-.253.109-.5.232-.735.36-.075.043-.162.08-.234.123q1.857-1.081,3.717-2.158c.032-.021.071-.045.1-.062a1.105,1.105,0,0,0,.13-.062c.241-.132.483-.244.729-.355.041-.02.089-.048.137-.066a1.028,1.028,0,0,1,.118-.043,9.05,9.05,0,0,1,.888-.312.382.382,0,0,1,.041-.014l.005-.005a.281.281,0,0,0,.045-.009c.214-.061.435-.114.653-.16l.2-.043c.068-.009.141-.029.2-.043.134-.02.26-.034.383-.046a1.412,1.412,0,0,1,.152-.025c.221-.029.441-.052.665-.066h.079c.068-.005.136-.011.194-.011.193-.009.4-.009.589-.009.082,0,.166,0,.25.005.066,0,.134,0,.2,0,.118.005.244.014.371.03.087.005.177.007.264.018.266.025.537.057.8.1l.03,0h.009c.293.043.589.1.888.166.1.02.189.046.289.07.185.043.367.087.556.134.02,0,.039.014.061.02.346.1.7.2,1.068.33.071.025.15.059.221.082q.428.155.867.326c.039.02.075.032.114.048.237.1.474.2.715.31a.937.937,0,0,1,.1.053c.266.123.542.255.806.392.082.043.159.086.237.123.3.155.6.323.913.5s.635.38.951.578c.1.062.2.134.3.2.212.137.43.275.64.416.118.086.232.166.348.251.2.132.391.275.585.421.121.086.241.18.359.266.194.146.387.3.58.455.112.089.226.175.333.264.212.18.43.36.647.551.075.07.162.141.241.207.3.257.589.523.872.79.064.059.123.114.18.171.2.18.389.36.58.549.029.029.05.061.084.091.334.335.683.676,1.009,1.031a.411.411,0,0,1,.038.043c.314.341.622.687.935,1.038.032.037.062.07.091.1.118.137.243.278.36.426s.253.294.374.444c.139.166.28.342.414.508s.271.341.4.51a.291.291,0,0,1,.059.066c.029.037.061.086.087.128.392.492.763,1,1.131,1.514.03.048.071.1.1.143a.355.355,0,0,0,.046.075c.339.494.68.99,1,1.5.032.048.066.094.1.143.045.07.091.145.13.21.26.423.528.853.783,1.281.034.061.071.121.114.184a.639.639,0,0,0,.039.066c.273.492.553.985.819,1.479.018.041.046.078.066.121.046.082.08.168.127.248.209.391.4.783.6,1.183a2.842,2.842,0,0,1,.127.255c.023.048.048.1.071.153.244.5.474,1,.7,1.514a.138.138,0,0,0,.025.048,1.036,1.036,0,0,0,.071.175c.193.455.384.913.56,1.373.028.08.062.15.091.227s.046.128.066.193c.205.546.408,1.088.594,1.639a.152.152,0,0,1,.007.039.937.937,0,0,0,.039.112c.182.562.353,1.133.519,1.7.014.071.039.132.059.2s.034.13.05.194c.048.169.093.346.139.523l.166.681c.039.168.084.341.121.512.029.118.053.239.08.362.02.087.036.177.052.255.055.262.1.523.15.776.032.178.064.362.1.54.037.264.08.533.112.79.021.127.046.259.062.387.009.052.009.107.02.159.011.118.02.237.036.351.036.264.059.526.082.781.009.123.025.253.032.38.02.26.036.517.048.774,0,.114.011.23.016.335.012.367.018.733.018,1.092-.014,6.246-2.224,10.636-5.779,12.7-1.233.722-2.47,1.439-3.71,2.165,3.551-2.071,5.758-6.464,5.772-12.7,0-.36,0-.728-.02-1.092,0-.118-.007-.237-.02-.351" transform="translate(88.498 -15.18)" fill="#def6ff"/>
          <path id="Path_87942" data-name="Path 87942" d="M287.194,168.315c-10.935-6.307-19.832-1.241-19.864,11.321s8.8,27.873,19.73,34.181,19.823,1.24,19.861-11.315c.034-12.573-8.8-27.871-19.727-34.187" transform="translate(85.961 -14.232)" fill="#c1e8fa"/>
          <path id="Path_87943" data-name="Path 87943" d="M285.112,171.219c-8.335-4.816-15.122-.947-15.147,8.636s6.706,21.252,15.048,26.059,15.12.949,15.145-8.624c.029-9.591-6.715-21.255-15.047-26.071" transform="translate(88.026 -11.454)" fill="#def6ff"/>
          <path id="Path_87944" data-name="Path 87944" d="M283.195,171.22c8.331,4.816,15.075,16.481,15.047,26.071-.011,3.872-1.124,6.808-3,8.617a12.928,12.928,0,0,1-7.782-2.012c-8.342-4.816-15.075-16.482-15.05-26.066.018-3.874,1.127-6.815,3-8.627a12.907,12.907,0,0,1,7.78,2.017" transform="translate(89.942 -11.454)" fill="#82c2de"/>
          <path id="Path_87945" data-name="Path 87945" d="M295.505,197.113a15.844,15.844,0,0,1-.621,4.493,16.553,16.553,0,0,1-3.935-1.668c-8.338-4.821-15.075-16.488-15.047-26.07a15.722,15.722,0,0,1,.619-4.495,16.262,16.262,0,0,1,3.935,1.668c8.331,4.816,15.077,16.481,15.048,26.071" transform="translate(92.679 -11.276)" fill="#60acc6"/>
          <path id="Path_87946" data-name="Path 87946" d="M302.664,168.555l-.029,8.594-15.742-8.874V159.44Z" transform="translate(101.291 -19.061)" fill="#c1e8fa"/>
          <path id="Path_87947" data-name="Path 87947" d="M292.436,162.9l-.007,3.182-15.76-8.831v-3.466Z" transform="translate(93.279 -23.494)" fill="#def6ff"/>
          <path id="Path_87948" data-name="Path 87948" d="M286.616,159.533l.029,3.271-7.973-4.464v-3.4Z" transform="translate(94.848 -22.587)" fill="#1d374e"/>
          <path id="Path_87949" data-name="Path 87949" d="M274.165,155.647c-.032-.171-.071-.346-.121-.517a.106.106,0,0,0-.012-.046c-.059-.184-.127-.373-.205-.555v-.009c-.087-.184-.182-.369-.285-.553l-.005-.011a5.266,5.266,0,0,0-.33-.5.325.325,0,0,1-.029-.037c-.109-.148-.228-.291-.339-.417-.032-.029-.059-.057-.084-.08-.095-.1-.193-.186-.291-.275a1.586,1.586,0,0,0-.139-.118,5.142,5.142,0,0,0-.439-.314,2.493,2.493,0,0,0-.442-.2.245.245,0,0,0-.07-.023,1.81,1.81,0,0,0-.389-.086l-.032-.005a1.386,1.386,0,0,0-.38.02l-.018.005a1.148,1.148,0,0,0-.341.127l.012-.005.767-.444.533-.312.011-.005a.7.7,0,0,1,.116-.057,1.139,1.139,0,0,1,.125-.041c.025-.011.052-.016.075-.025s.021-.005.032-.005a.04.04,0,0,0,.023-.005l.146-.018h.15c.016,0,.038.005.054.005s.021.005.038.005.055,0,.08.007c.071.011.141.03.212.048a.841.841,0,0,1,.087.029.58.58,0,0,1,.084.029.8.8,0,0,1,.105.034,3.336,3.336,0,0,1,.332.164,3.264,3.264,0,0,1,.439.309c.045.037.087.075.139.114.066.066.137.12.2.186a.555.555,0,0,1,.086.1.972.972,0,0,1,.08.075.545.545,0,0,1,.086.1,2.3,2.3,0,0,1,.2.23c.021.029.043.057.062.08s.023.034.03.048.048.052.068.086c.045.062.091.132.137.2a1.727,1.727,0,0,0,.12.2l0,.018.009.011c.027.061.066.112.093.169s.07.134.1.2.055.118.084.18l0,.009c0,.009,0,.009.009.014.021.071.054.143.082.214l.084.221a.987.987,0,0,0,.034.1.153.153,0,0,1,.005.048c.007.028.02.053.029.086.021.086.046.175.066.264a1.1,1.1,0,0,1,.027.157.952.952,0,0,1,.016.095l.013.071a2.91,2.91,0,0,1,.036.458,1.666,1.666,0,0,1-.692,1.507l-1.309.762a1.637,1.637,0,0,0,.689-1.505,4.3,4.3,0,0,0-.043-.539.37.37,0,0,0-.016-.077" transform="translate(88.221 -25.57)" fill="#def6ff"/>
          <path id="Path_87950" data-name="Path 87950" d="M272.183,151.88c-1.295-.744-2.345-.148-2.349,1.34a5.138,5.138,0,0,0,2.333,4.045c1.293.747,2.349.15,2.356-1.336a5.173,5.173,0,0,0-2.34-4.049" transform="translate(87.923 -25.236)" fill="#c1e8fa"/>
          <path id="Path_87951" data-name="Path 87951" d="M270.044,153.476a3.32,3.32,0,0,0-.12-.521.149.149,0,0,0-.011-.037,5.386,5.386,0,0,0-.205-.558H269.7a3.969,3.969,0,0,0-.276-.56l-.005-.011a5.382,5.382,0,0,0-.334-.507.274.274,0,0,1-.025-.032,3.176,3.176,0,0,0-.351-.417.678.678,0,0,0-.075-.086,3.433,3.433,0,0,0-.293-.269c-.045-.043-.091-.089-.137-.127a4.125,4.125,0,0,0-.439-.3,2.538,2.538,0,0,0-.432-.2.693.693,0,0,0-.086-.029,2.021,2.021,0,0,0-.383-.086h-.032a1.463,1.463,0,0,0-.38.02l-.016.005a.924.924,0,0,0-.342.121l.011-.005.763-.449.537-.3.011-.009a.761.761,0,0,1,.121-.059.607.607,0,0,1,.121-.041.339.339,0,0,1,.084-.02l.023-.005.023,0a1.369,1.369,0,0,1,.146-.02h.15c.02,0,.039.005.048.005l.043,0a.286.286,0,0,1,.091.011c.059.009.13.023.2.037.036.009.059.023.087.032l.091.03c.03.012.059.018.1.037a2.651,2.651,0,0,1,.328.161,3.563,3.563,0,0,1,.439.3c.05.037.095.086.137.123.071.061.143.114.207.18.03.032.059.066.089.095a.8.8,0,0,0,.075.08c.032.037.062.066.091.1.068.077.13.155.193.232.021.029.041.062.061.086a.233.233,0,0,0,.032.037.909.909,0,0,1,.062.089,1.856,1.856,0,0,1,.135.205c.043.066.086.132.127.2l.007.014.009.014c.021.052.059.114.089.169a1.092,1.092,0,0,1,.1.2,1.05,1.05,0,0,1,.086.18v.009l.009.014c.03.066.059.137.091.209s.052.146.075.218a.659.659,0,0,1,.027.114.084.084,0,0,1,.02.045.465.465,0,0,1,.029.084c.023.089.043.175.064.269.007.054.016.1.025.157.005.034.012.057.016.086s.012.055.012.08a3.3,3.3,0,0,1,.037.453,1.653,1.653,0,0,1-.688,1.507l-1.309.758a1.659,1.659,0,0,0,.685-1.5,4.038,4.038,0,0,0-.046-.54c-.005-.029-.012-.052-.016-.075" transform="translate(84.995 -27.268)" fill="#def6ff"/>
          <path id="Path_87952" data-name="Path 87952" d="M268.068,149.713c-1.3-.747-2.349-.146-2.354,1.336a5.154,5.154,0,0,0,2.338,4.051c1.293.746,2.353.146,2.356-1.341a5.154,5.154,0,0,0-2.34-4.045" transform="translate(84.694 -26.935)" fill="#c1e8fa"/>
          <path id="Path_87953" data-name="Path 87953" d="M284.944,164.253l.333-.194.005-3.013-.326.191Z" transform="translate(99.763 -17.803)" fill="#c5ced7"/>
          <path id="Path_87954" data-name="Path 87954" d="M285.4,161.5l.328-.189-1.02-.6-.332.193Z" transform="translate(99.319 -18.064)" fill="#c5ced7"/>
          <path id="Path_87955" data-name="Path 87955" d="M284.381,160.821l-.011,3.011,1.022.6.012-3.016Z" transform="translate(99.314 -17.979)" fill="#e1eaf3"/>
          <path id="Path_87956" data-name="Path 87956" d="M283.717,163.623l.333-.189.009-3.013-.332.194Z" transform="translate(98.802 -18.292)" fill="#c5ced7"/>
          <path id="Path_87957" data-name="Path 87957" d="M284.174,160.879l.333-.194-1.026-.6-.334.2Z" transform="translate(98.356 -18.554)" fill="#c5ced7"/>
          <path id="Path_87958" data-name="Path 87958" d="M283.153,160.2l-.013,3.016,1.027.587.011-3.007Z" transform="translate(98.351 -18.468)" fill="#e1eaf3"/>
          <path id="Path_87959" data-name="Path 87959" d="M278.481,160.757l.332-.189.007-3.013-.332.2Z" transform="translate(94.699 -20.538)" fill="#c5ced7"/>
          <path id="Path_87960" data-name="Path 87960" d="M278.935,158.014l.334-.2-1.026-.592-.334.194Z" transform="translate(94.251 -20.798)" fill="#c5ced7"/>
          <path id="Path_87961" data-name="Path 87961" d="M277.914,157.332l-.009,3.011,1.027.589.007-3Z" transform="translate(94.247 -20.713)" fill="#e1eaf3"/>
          <path id="Path_87962" data-name="Path 87962" d="M277.253,160.136l.333-.2.005-3-.33.194Z" transform="translate(93.737 -21.025)" fill="#c5ced7"/>
          <path id="Path_87963" data-name="Path 87963" d="M277.71,157.39l.332-.194-1.027-.6-.332.194Z" transform="translate(93.289 -21.287)" fill="#c5ced7"/>
          <path id="Path_87964" data-name="Path 87964" d="M276.688,156.708l-.012,3.011,1.031.594.009-3.009Z" transform="translate(93.284 -21.202)" fill="#e1eaf3"/>
          <path id="Path_87965" data-name="Path 87965" d="M349.7,100.174l-.241,84.8-51.7,30.045.241-84.8Z" transform="translate(109.81 -65.504)" fill="#c1e8fa"/>
          <path id="Path_87966" data-name="Path 87966" d="M324.382,132.251l-.241,84.8L264.1,182.385l.243-84.806Z" transform="translate(83.432 -67.537)" fill="#acd9ea"/>
          <path id="Path_87967" data-name="Path 87967" d="M324.294,132.251l-.029,11.72-60.049-34.808.041-11.585Z" transform="translate(83.52 -67.537)" fill="#82c2de"/>
          <path id="Path_87968" data-name="Path 87968" d="M375.975,115.406l-51.7,30.043-60.039-34.674,51.691-30.04Z" transform="translate(83.538 -80.736)" fill="#def6ff"/>
          <path id="Path_87969" data-name="Path 87969" d="M289.673,123c-10.932-6.307-19.823-1.245-19.864,11.322s8.8,27.864,19.734,34.18,19.829,1.241,19.861-11.321-8.8-27.866-19.73-34.181" transform="translate(87.903 -49.746)" fill="#c1e8fa"/>
          <path id="Path_87970" data-name="Path 87970" d="M287.586,125.9c-8.333-4.81-15.113-.947-15.14,8.642s6.708,21.25,15.043,26.062,15.12.947,15.147-8.633-6.71-21.256-15.05-26.071" transform="translate(89.971 -46.968)" fill="#82c2de"/>
          <path id="Path_87971" data-name="Path 87971" d="M302.664,120.834l-.029,8.594-15.742-8.868v-8.84Z" transform="translate(101.291 -56.456)" fill="#c1e8fa"/>
          <path id="Path_87972" data-name="Path 87972" d="M292.436,115.177l-.007,3.182-15.76-8.827v-3.469Z" transform="translate(93.279 -60.889)" fill="#def6ff"/>
          <path id="Path_87973" data-name="Path 87973" d="M286.616,111.818l.029,3.271-7.973-4.464v-3.4Z" transform="translate(94.848 -59.983)" fill="#1d374e"/>
          <path id="Path_87974" data-name="Path 87974" d="M274.165,107.923c-.032-.171-.071-.346-.121-.517a.106.106,0,0,0-.012-.046c-.059-.184-.127-.375-.205-.555V106.8c-.087-.184-.182-.369-.285-.553l-.005-.005a4.735,4.735,0,0,0-.33-.507l-.029-.037c-.109-.148-.228-.285-.339-.412a.926.926,0,0,1-.084-.086c-.095-.1-.193-.186-.291-.271-.045-.043-.1-.084-.139-.123a5.026,5.026,0,0,0-.439-.307,2.17,2.17,0,0,0-.442-.2.731.731,0,0,0-.07-.027,1.6,1.6,0,0,0-.389-.082l-.032-.005a1.642,1.642,0,0,0-.38.016l-.018.005a1.111,1.111,0,0,0-.341.132l.012-.005.767-.449.533-.309.011,0a1.24,1.24,0,0,1,.116-.062,1.148,1.148,0,0,1,.125-.043.413.413,0,0,1,.075-.018c.016,0,.021-.005.032-.005a.04.04,0,0,0,.023-.005c.053-.009.094-.012.146-.018h.15c.016,0,.038.005.054.005l.038,0c.029,0,.055,0,.08.009.071.011.141.025.212.043a.832.832,0,0,1,.087.029.432.432,0,0,1,.084.034.784.784,0,0,1,.105.032,2.49,2.49,0,0,1,.332.166,3.216,3.216,0,0,1,.439.3c.045.037.087.08.139.118.066.062.137.12.2.186a.534.534,0,0,1,.086.095c.025.023.054.052.08.08a.471.471,0,0,1,.086.1,2.168,2.168,0,0,1,.2.235c.021.029.043.057.062.08a.209.209,0,0,1,.03.043c.02.029.048.057.068.089.045.057.091.128.137.2s.075.134.12.2l0,.018.009.011c.027.055.066.112.093.169s.07.132.1.2.055.118.084.178l0,.009.009.011a2.259,2.259,0,0,0,.082.214c.027.075.055.15.084.221a.845.845,0,0,0,.034.109.108.108,0,0,1,.005.043c.007.029.02.057.029.089.021.08.046.177.066.26a1.173,1.173,0,0,1,.027.162.661.661,0,0,1,.016.089l.013.077a2.86,2.86,0,0,1,.036.453,1.666,1.666,0,0,1-.692,1.507l-1.309.762a1.637,1.637,0,0,0,.689-1.505,4.248,4.248,0,0,0-.043-.535.359.359,0,0,0-.016-.08" transform="translate(88.221 -62.963)" fill="#def6ff"/>
          <path id="Path_87975" data-name="Path 87975" d="M272.183,104.16c-1.295-.742-2.345-.144-2.349,1.34a5.144,5.144,0,0,0,2.333,4.047c1.293.746,2.349.146,2.356-1.341a5.161,5.161,0,0,0-2.34-4.045" transform="translate(87.923 -62.63)" fill="#c1e8fa"/>
          <path id="Path_87976" data-name="Path 87976" d="M270.044,105.754a3.324,3.324,0,0,0-.12-.517.2.2,0,0,0-.011-.041,5.391,5.391,0,0,0-.205-.558H269.7a4.064,4.064,0,0,0-.276-.56l-.005-.009a4.907,4.907,0,0,0-.334-.5.274.274,0,0,1-.025-.037,3.869,3.869,0,0,0-.351-.416.8.8,0,0,0-.075-.082c-.095-.1-.191-.187-.293-.275-.045-.037-.091-.086-.137-.123a3.43,3.43,0,0,0-.439-.3,2.2,2.2,0,0,0-.432-.2.688.688,0,0,0-.086-.029,2.189,2.189,0,0,0-.383-.089h-.032a1.321,1.321,0,0,0-.38.02l-.016,0a1.167,1.167,0,0,0-.342.123h.011l.763-.449.537-.3.011-.009a.945.945,0,0,1,.121-.057,1.011,1.011,0,0,1,.121-.048.634.634,0,0,1,.084-.018l.023-.005a.033.033,0,0,1,.023-.005c.048-.009.1-.012.146-.018h.15c.02,0,.039.005.048.005l.043,0a.34.34,0,0,1,.091.009c.059.011.13.025.2.043.036.011.059.023.087.034s.059.018.091.029.059.018.1.037a2.223,2.223,0,0,1,.328.161,3.2,3.2,0,0,1,.439.3c.05.037.095.086.137.119.071.061.143.118.207.178l.089.1a.423.423,0,0,0,.075.075c.032.039.062.066.091.105.068.075.13.152.193.232.021.027.041.057.061.08s.023.029.032.043c.023.034.045.057.062.089a1.8,1.8,0,0,1,.135.2c.043.066.086.137.127.2l.007.012.009.014a1.094,1.094,0,0,0,.089.169,1.612,1.612,0,0,1,.1.2,1.485,1.485,0,0,1,.086.178v.009l.009.016c.03.071.059.137.091.207s.052.146.075.223a.644.644,0,0,1,.027.109.1.1,0,0,1,.02.048.536.536,0,0,1,.029.086c.023.084.043.175.064.264.007.057.016.105.025.157.005.032.012.061.016.089s.012.057.012.077a3.427,3.427,0,0,1,.037.458,1.661,1.661,0,0,1-.688,1.507l-1.309.756a1.66,1.66,0,0,0,.685-1.5,4.011,4.011,0,0,0-.046-.54c-.005-.029-.012-.057-.016-.08" transform="translate(84.995 -64.663)" fill="#def6ff"/>
          <path id="Path_87977" data-name="Path 87977" d="M268.068,102c-1.3-.747-2.349-.152-2.354,1.331a5.16,5.16,0,0,0,2.338,4.054c1.293.747,2.353.146,2.356-1.341a5.151,5.151,0,0,0-2.34-4.043" transform="translate(84.694 -64.328)" fill="#c1e8fa"/>
          <path id="Path_87978" data-name="Path 87978" d="M284.944,116.533l.333-.193.005-3.013-.326.189Z" transform="translate(99.763 -55.196)" fill="#c5ced7"/>
          <path id="Path_87979" data-name="Path 87979" d="M285.4,113.778l.328-.187-1.02-.6-.332.193Z" transform="translate(99.319 -55.458)" fill="#c5ced7"/>
          <path id="Path_87980" data-name="Path 87980" d="M284.381,113.1l-.011,3.011,1.022.6.012-3.016Z" transform="translate(99.314 -55.373)" fill="#e1eaf3"/>
          <path id="Path_87981" data-name="Path 87981" d="M283.717,115.9l.333-.189.009-3.011-.332.193Z" transform="translate(98.802 -55.684)" fill="#c5ced7"/>
          <path id="Path_87982" data-name="Path 87982" d="M284.174,113.16l.333-.194-1.026-.6-.334.194Z" transform="translate(98.356 -55.946)" fill="#c5ced7"/>
          <path id="Path_87983" data-name="Path 87983" d="M283.153,112.478l-.013,3.016,1.027.587.011-3.007Z" transform="translate(98.351 -55.861)" fill="#e1eaf3"/>
          <path id="Path_87984" data-name="Path 87984" d="M278.481,113.039l.332-.193.007-3.013-.332.2Z" transform="translate(94.699 -57.933)" fill="#c5ced7"/>
          <path id="Path_87985" data-name="Path 87985" d="M278.935,110.293l.334-.2-1.026-.592-.334.194Z" transform="translate(94.251 -58.193)" fill="#c5ced7"/>
          <path id="Path_87986" data-name="Path 87986" d="M277.914,109.611l-.009,3.011,1.027.592.007-3.007Z" transform="translate(94.247 -58.108)" fill="#e1eaf3"/>
          <path id="Path_87987" data-name="Path 87987" d="M277.253,112.419l.333-.2.005-3.005-.33.194Z" transform="translate(93.737 -58.42)" fill="#c5ced7"/>
          <path id="Path_87988" data-name="Path 87988" d="M277.71,109.669l.332-.194-1.027-.6-.332.193Z" transform="translate(93.289 -58.682)" fill="#c5ced7"/>
          <path id="Path_87989" data-name="Path 87989" d="M276.688,108.987,276.675,112l1.031.6.009-3.011Z" transform="translate(93.284 -58.597)" fill="#e1eaf3"/>
          <path id="Path_87990" data-name="Path 87990" d="M273.939,163.2c.011-.232.027-.455.041-.692.005-.118.013-.241.025-.358.025-.228.046-.466.075-.692.016-.109.02-.218.041-.326.014-.161.046-.332.062-.5.036-.235.068-.473.105-.719.034-.162.068-.326.1-.494.036-.227.091-.458.13-.7.039-.189.078-.383.119-.578.037-.146.071-.3.105-.444.052-.223.111-.435.166-.649.032-.152.062-.287.107-.435.039-.128.082-.264.114-.4.152-.51.305-1.022.48-1.543a.742.742,0,0,1,.03-.105c.166-.507.346-1,.537-1.5.048-.127.1-.259.146-.378.166-.426.335-.853.517-1.273a1.233,1.233,0,0,0,.071-.175c.214-.469.417-.929.633-1.388.062-.118.118-.237.177-.355.178-.36.364-.715.555-1.076.054-.118.112-.235.177-.346q.35-.666.735-1.32c.052-.1.114-.2.169-.289.218-.369.442-.738.667-1.1.077-.12.146-.235.227-.346.292-.458.589-.908.9-1.348l.159-.219c.316-.453.642-.894.979-1.332.055-.071.114-.148.169-.228.1-.118.195-.243.3-.366.146-.184.3-.369.439-.549.114-.132.228-.26.335-.392.139-.157.269-.317.4-.469q.407-.468.831-.924c.025-.023.037-.046.061-.07.3-.317.608-.626.915-.938.2-.189.392-.378.594-.569.055-.052.111-.109.169-.164.26-.248.53-.483.794-.721.071-.057.143-.123.218-.18.2-.166.4-.341.592-.5.1-.086.2-.157.293-.237.178-.143.357-.284.537-.421.1-.08.214-.162.321-.232.171-.137.355-.266.542-.394.1-.071.2-.146.307-.218.191-.137.387-.264.585-.387.086-.062.177-.125.26-.18.3-.18.58-.355.869-.521s.555-.314.826-.455c.078-.037.155-.077.225-.114.246-.128.483-.246.721-.351a.777.777,0,0,1,.1-.052c.253-.112.5-.216.751-.321s.53-.209.79-.3c.068-.029.139-.052.2-.08.335-.109.656-.209.972-.3.189-.052.38-.095.56-.137.1-.018.182-.046.269-.066.264-.052.537-.109.81-.146a.046.046,0,0,0,.023-.005c.246-.037.49-.066.728-.084.089-.011.166-.014.241-.02.178-.016.348-.023.517-.029.079-.005.153-.005.234-.005.178,0,.348,0,.528.011.059,0,.123,0,.18.005.228.012.453.032.68.061.046.005.089.009.137.018.155.02.3.048.446.071a8.726,8.726,0,0,1,.9.214c.016,0,.02.005.032.005a7.136,7.136,0,0,1,.817.292,1.828,1.828,0,0,1,.23.095,6.454,6.454,0,0,1,.658.326,2.069,2.069,0,0,1,.218.114c-1.125-.658-2.246-1.311-3.373-1.966a.631.631,0,0,1-.095-.057c-.041-.02-.084-.037-.127-.057-.207-.112-.432-.221-.656-.321a1.239,1.239,0,0,1-.118-.061.8.8,0,0,1-.114-.043,8.454,8.454,0,0,0-.808-.28l-.034-.014h-.013l-.034-.009c-.194-.059-.4-.1-.594-.143a1.7,1.7,0,0,0-.182-.043c-.059-.009-.118-.023-.189-.037-.107-.02-.228-.034-.344-.052-.043-.005-.091-.011-.139-.014-.2-.025-.394-.043-.6-.057a.363.363,0,0,1-.075-.005c-.059-.005-.114-.005-.178-.005-.173-.007-.351-.012-.533-.007h-.221c-.061,0-.119,0-.182.007a2.882,2.882,0,0,0-.339.025c-.079.005-.159.009-.241.018-.237.025-.483.054-.731.086a.069.069,0,0,0-.029.005c-.268.037-.542.089-.81.152-.091.018-.175.048-.264.061-.166.037-.332.082-.507.125a.178.178,0,0,0-.052.018c-.325.086-.639.184-.967.292-.071.034-.143.054-.211.082-.253.089-.521.184-.778.293-.043.02-.08.03-.111.043-.212.091-.426.186-.647.285-.029.012-.066.032-.091.041-.241.114-.5.237-.738.366l-.218.109c-.269.146-.546.289-.826.453s-.573.342-.861.526c-.091.052-.177.114-.269.171-.2.128-.394.26-.583.387-.109.077-.211.153-.321.223-.18.128-.351.255-.526.389-.118.08-.216.157-.326.241-.178.137-.35.275-.53.412-.1.082-.2.157-.3.248-.2.155-.4.321-.592.491-.071.062-.143.125-.225.191-.262.232-.526.476-.788.719-.055.052-.105.1-.164.152-.175.171-.35.332-.517.5a.6.6,0,0,0-.08.086c-.312.3-.621.615-.917.938l-.032.032c-.293.309-.567.626-.853.944a.638.638,0,0,0-.082.095c-.112.128-.218.26-.33.383s-.225.269-.343.407-.246.307-.38.464c-.109.157-.237.3-.355.46a.572.572,0,0,0-.059.066c-.02.032-.048.071-.075.109-.353.455-.688.91-1.024,1.379-.027.041-.059.084-.095.128-.016.021-.029.05-.045.07-.308.446-.619.9-.911,1.359-.023.037-.052.086-.082.128-.037.066-.08.132-.12.194-.244.383-.478.771-.715,1.159a1.173,1.173,0,0,1-.1.166.242.242,0,0,1-.03.061c-.253.45-.5.9-.742,1.341a.934.934,0,0,0-.064.112c-.045.071-.078.152-.12.228-.187.353-.362.71-.537,1.068-.043.082-.084.153-.127.234a.959.959,0,0,1-.059.141c-.212.449-.426.913-.633,1.37a.171.171,0,0,1-.014.043c-.023.055-.045.112-.068.164-.182.414-.348.828-.514,1.245-.027.071-.055.137-.078.209s-.043.114-.064.177c-.184.492-.367.99-.53,1.486a.1.1,0,0,1-.018.034c-.007.032-.025.07-.032.109-.171.512-.326,1.027-.473,1.539a1.6,1.6,0,0,1-.053.189c-.02.052-.027.109-.043.169-.045.162-.091.317-.127.478-.052.209-.107.408-.148.612-.041.161-.08.317-.112.467-.029.111-.055.219-.075.334-.02.084-.029.155-.046.237-.048.23-.1.467-.139.7-.023.166-.055.332-.078.494-.045.235-.084.473-.112.713-.016.12-.034.237-.05.351-.009.046-.009.093-.02.146-.012.1-.025.212-.036.321-.032.237-.055.469-.078.7a2.478,2.478,0,0,1-.025.346c-.013.237-.029.473-.039.71-.007.1-.016.205-.016.3-.016.33-.02.662-.02.988.016,5.668,2.019,9.655,5.246,11.535,1.122.649,2.249,1.3,3.371,1.957-3.225-1.876-5.228-5.863-5.244-11.528,0-.335.009-.656.025-.988,0-.1.007-.218.012-.317" transform="translate(88.468 -42.881)" fill="#def6ff"/>
          <path id="Path_87991" data-name="Path 87991" d="M290.337,132.607c9.928-5.733,18-1.136,18.038,10.284.032,11.4-7.991,25.3-17.917,31.033s-18.006,1.133-18.038-10.275,7.985-25.313,17.917-31.042" transform="translate(89.949 -42.021)" fill="#c1e8fa"/>
          <path id="Path_87992" data-name="Path 87992" d="M288.476,135.24c7.57-4.37,13.729-.862,13.757,7.841s-6.093,19.3-13.67,23.676-13.725.851-13.748-7.843,6.088-19.3,13.661-23.674" transform="translate(91.826 -39.498)" fill="#def6ff"/>
          <path id="Path_87993" data-name="Path 87993" d="M288.476,135.241c-7.573,4.37-13.693,14.972-13.661,23.674,0,3.514,1.018,6.186,2.722,7.828a11.679,11.679,0,0,0,7.067-1.832c7.573-4.372,13.686-14.97,13.663-23.672-.013-3.512-1.02-6.184-2.722-7.83a11.751,11.751,0,0,0-7.069,1.832" transform="translate(91.826 -39.499)" fill="#82c2de"/>
          <path id="Path_87994" data-name="Path 87994" d="M274.815,158.754a14.18,14.18,0,0,0,.56,4.083,14.689,14.689,0,0,0,3.571-1.52c7.579-4.372,13.695-14.968,13.67-23.667a14.35,14.35,0,0,0-.564-4.086,14.807,14.807,0,0,0-3.576,1.516c-7.573,4.37-13.693,14.972-13.661,23.674" transform="translate(91.826 -39.338)" fill="#3998d8"/>
          <g id="Group_35500" data-name="Group 35500" transform="translate(274.897 242.973)" opacity="0.1">
            <g id="Group_35499" data-name="Group 35499" transform="translate(0 0)">
              <g id="Group_35498" data-name="Group 35498" clip-path="url(#clip-path-10)">
                <path id="Path_87995" data-name="Path 87995" d="M291.988,212.342c14.253,8.221,14.326,21.564.177,29.783s-37.184,8.217-51.422,0-14.324-21.554-.175-29.779,37.182-8.223,51.42,0" transform="translate(-230.006 -206.172)"/>
              </g>
            </g>
          </g>
          <path id="Path_87996" data-name="Path 87996" d="M248.7,214.105c.238.049,12.642-.338,9.877,3.976a7.028,7.028,0,0,1-6.133,3.339c-1.862.053-5.251-.957-6.095-.452s-5.046,3.212-7.453.491a4.055,4.055,0,0,1-.483-3.155c.308-1.021,8.914-4.441,10.287-4.2" transform="translate(53.472 45.016)" fill="#feb623"/>
          <path id="Path_87997" data-name="Path 87997" d="M258.558,217.425a7.027,7.027,0,0,1-6.133,3.339c-1.862.053-5.251-.957-6.095-.452s-5.044,3.212-7.453.491a3.4,3.4,0,0,1-.572-1.554c1.689,2.308,5.816,1.678,6.967.915a6.781,6.781,0,0,1,4.8-.984c1.63.312,5.152-.067,6.922-1.66a2.616,2.616,0,0,0,.809-2.793c1.082.587,1.573,1.44.762,2.7" transform="translate(53.494 45.672)" fill="#c47f10"/>
          <path id="Path_87998" data-name="Path 87998" d="M258.01,218.26c8.9-1.167,18.241.281,14.787,4.832a9.3,9.3,0,0,1-7.757,3.475c-2.365.014-6.7-1.11-7.761-.572-1.065.519-6.355,3.339-9.466.4-.625-.595-1.607-3.188-1.218-4.259s9.666-3.636,11.415-3.87" transform="translate(62 48.938)" fill="#feb623"/>
          <path id="Path_87999" data-name="Path 87999" d="M265.126,142.065s6.457-4.677,10.431-2.389,4.241,3.357,2.057,3.779-8.018,1.725-7.215,2.336,2.952.908,2.45,1.644-6.9-.356-6.9-.356l-3.5-3.4Z" transform="translate(78.53 -32.81)" fill="#ffaa83"/>
          <path id="Path_88000" data-name="Path 88000" d="M245.632,150.456s-7.527-.45-7.7,7.187c-.177,8.1,15.854,5.431,15.854,5.431s13.874-1.131,18.17-2.813c5.738-2.239,20.6-13.723,20.6-13.723s-1.033-4.705-4.249-5.932c0,0-14.027,9.187-19.344,10.224-5.8,1.124-22.073-.631-23.33-.373" transform="translate(53.104 -31.191)" fill="#0e9bcc"/>
          <path id="Path_88001" data-name="Path 88001" d="M241.311,168.256s-7.72,13.041-.8,31.081c0,0,5.321,15.233,4.149,20.337-1.414,6.109-3.477,4.376-4.974,24.615-1.326,17.867-1.245,15.047-.937,21.617.094,2.08,8.458,3.85,9.8-1.381,3.436-13.373,11.758-41.333,10.232-57.513s-2.493-31.321-2.493-31.321-9.676-2.827-14.98-7.435" transform="translate(52.797 -2.518)" fill="#120f1f"/>
          <path id="Path_88002" data-name="Path 88002" d="M246.156,173.2s-7.769,11.611,2.73,26.948c0,0,7.891,17.241,6.822,23.026-1.141,5.979-3.049,5.473-5.107,23.76-1.3,11.631-2.116,14.561-1.2,22.047.342,2.76,11,3.027,11.617-.88,2.157-13.562,12.3-42.759,10.784-58.949s-4.779-34.4-4.779-34.4-13.811,2.373-20.867-1.548" transform="translate(58.767 2.608)" fill="#32293a"/>
          <path id="Path_88003" data-name="Path 88003" d="M273.4,162.687s1.835-8.6-12.542-13.752-23.24-4.97-23.426,3.056,3.536,18.72,4.06,22.338a31.737,31.737,0,0,1-1.729,18.1c-3.436,8.236-5.06,16.088,17.72,17.423,3.976.236,18.787.163,16.7-9.069-2.628-11.534-2.436-28.553-.778-38.1" transform="translate(52.587 -26.175)" fill="#00aeef"/>
          <path id="Path_88004" data-name="Path 88004" d="M277,151.35s5.657-5.618,4.035-9.906-2.616-4.726-3.384-2.64-3.009,7.625-3.473,6.738-.434-3.049-1.226-2.677c-.813.379-.772,6.863-.772,6.863l2.785,4Z" transform="translate(88.624 -34.319)" fill="#ffaa83"/>
          <path id="Path_88005" data-name="Path 88005" d="M255.424,157.681s-7.468.515-6.191,8.118c1.349,8.065,16.6,3.386,16.6,3.386s13.4-2.876,17.313-5.095c5.221-2.956,17.628-16.255,17.628-16.255s-1.9-4.543-5.3-5.353c0,0-12.029,10.908-17.06,12.611-5.482,1.848-21.792,2.174-23,2.589" transform="translate(64.675 -29.247)" fill="#5bbbe6"/>
          <path id="Path_88006" data-name="Path 88006" d="M255.033,144.08s-1.5,6.082,1.473,9.776c1.591,2-4.789,4.072-9.949,1.444,0,0-.456-10.4-4.278-14.021Z" transform="translate(57.616 -30.494)" fill="#ffaa83"/>
          <path id="Path_88007" data-name="Path 88007" d="M252.346,145.655a23.884,23.884,0,0,1-5.752-1.687l-.23.159L245.2,145.8l-.676-.974s1.171,6.339,8.82,4.964a13.636,13.636,0,0,1-1-4.131" transform="translate(59.948 -27.704)" fill="#f79f7c"/>
          <path id="Path_88008" data-name="Path 88008" d="M272.651,222.3a9.3,9.3,0,0,1-7.757,3.475c-2.365.014-6.7-1.11-7.761-.572-1.065.519-6.355,3.337-9.466.4a4.952,4.952,0,0,1-1.021-2.029c2.171,2.485,7.682,2.239,9.124,1.452a10,10,0,0,1,6.1-.98c2.068.357,6.557.008,8.767-1.654a3.981,3.981,0,0,0,1.475-3.746c1.389.631,1.534,2.343.534,3.658" transform="translate(62.146 49.732)" fill="#c47f10"/>
          <path id="Path_88009" data-name="Path 88009" d="M256.791,131.041a13.968,13.968,0,0,1,7.048,10.415c1.118,7.252,3.394,13.524-.2,16.667-3.632,3.18-17.027,2.369-21.421-6.9-4.392-9.248,1.173-24.393,14.573-20.187" transform="translate(56.022 -41.86)" fill="#ffaa83"/>
          <path id="Path_88010" data-name="Path 88010" d="M266.725,140.451a5.031,5.031,0,0,1-3.092,4.526c-3.284,1.346-7.183,1.19-7.535,3.408s3.746,17.818.909,19.743c-3.673,2.471-13.493-2.208-15.009-3.9-2.059-2.3-4.331-18.294,0-27.622,0,0,4.54-7.462,13.2-6.229,0,0,11.112,1.438,11.527,10.079" transform="translate(54.765 -41.948)" fill="#723e24"/>
          <path id="Path_88011" data-name="Path 88011" d="M247.055,144.673c1.609,1.56,3.74,1.9,4.773.764s.556-3.314-1.033-4.873c-1.611-1.558-3.74-1.9-4.775-.764s-.558,3.32,1.035,4.873" transform="translate(60.931 -32.719)" fill="#ffaa83"/>
        </g>
      </g>
    </g>
  </g>
</svg>
